<svg version="1.1" viewBox="0.0 0.0 1314.4094488188975 259.2204724409449" fill="none" stroke="none" stroke-linecap="square" stroke-miterlimit="10" xmlns:xlink="http://www.w3.org/1999/xlink" xmlns="http://www.w3.org/2000/svg"><clipPath id="p.0"><path d="m0 0l1314.4094 0l0 259.22046l-1314.4094 0l0 -259.22046z" clip-rule="nonzero"/></clipPath><g clip-path="url(#p.0)"><path fill="#000000" fill-opacity="0.0" d="m0 0l1314.4094 0l0 259.22046l-1314.4094 0z" fill-rule="evenodd"/><defs><radialGradient id="p.1" gradientUnits="userSpaceOnUse" gradientTransform="matrix(11.613511824860213 0.0 0.0 11.613511824860213 0.0 0.0)" spreadMethod="pad" cx="10.553369354450325" cy="11.318045669569022" fx="10.553369354450325" fy="11.318045669569022" r="11.61351203918457"><stop offset="0.0" stop-color="#fdecdb"/><stop offset="1.0" stop-color="#f0a963"/></radialGradient></defs><path fill="url(#p.1)" d="m27.1916 131.44226l0 0c0 -52.67144 42.698635 -95.37009 95.37007 -95.37009l0 0c25.293716 0 49.551468 10.04789 67.43683 27.933247c17.88536 17.88536 27.933258 42.143112 27.933258 67.43684l0 0c0 52.671432 -42.69864 95.37007 -95.37009 95.37007l0 0c-52.67144 0 -95.37007 -42.69864 -95.37007 -95.37007z" fill-rule="evenodd"/><path stroke="#000000" stroke-width="1.0" stroke-linejoin="round" stroke-linecap="butt" d="m27.1916 131.44226l0 0c0 -52.67144 42.698635 -95.37009 95.37007 -95.37009l0 0c25.293716 0 49.551468 10.04789 67.43683 27.933247c17.88536 17.88536 27.933258 42.143112 27.933258 67.43684l0 0c0 52.671432 -42.69864 95.37007 -95.37009 95.37007l0 0c-52.67144 0 -95.37007 -42.69864 -95.37007 -95.37007z" fill-rule="evenodd"/><path fill="#000000" fill-opacity="0.0" d="m27.192913 86.009186l190.74016 0l0 90.86615l-190.74016 0z" fill-rule="evenodd"/><path fill="#000000" d="m53.34705 145.95288q-4.0625 0 -7.125 -1.65625q-3.046875 -1.671875 -4.734375 -4.515625q-1.671875 -2.84375 -1.671875 -6.4375q0 -2.890625 1.15625 -5.359375q1.171875 -2.484375 3.15625 -4.359375q1.984375 -1.875 4.515625 -2.921875q2.546875 -1.046875 5.328125 -1.046875q2.046875 0 3.390625 0.234375q1.359375 0.234375 2.4375 0.671875q1.09375 0.421875 2.171875 0.953125l0.421875 7.234375l-0.6875 0l-3.6875 -6.0q-0.953125 -0.609375 -1.8125 -0.875q-0.84375 -0.28125 -2.046875 -0.28125q-2.359375 0 -4.234375 1.421875q-1.875 1.40625 -2.953125 3.984375q-1.078125 2.5625 -1.078125 5.953125q0 3.375 1.03125 5.828125q1.046875 2.453125 2.84375 3.796875q1.796875 1.328125 4.046875 1.328125q1.421875 0 2.5625 -0.359375q1.140625 -0.375 2.1875 -0.953125l3.484375 -5.1875l0.65625 0l-0.546875 6.53125q-1.578125 0.921875 -3.8125 1.46875q-2.21875 0.546875 -5.0 0.546875zm13.265842 -0.390625l0 -0.625l2.578125 -1.234375l0 -22.71875l-2.46875 -1.828125l0 -0.453125l7.421875 -2.125l0.46875 0l0 13.828125l0.15625 0q1.390625 -1.34375 2.703125 -2.09375q1.3125 -0.765625 3.09375 -0.765625q2.359375 0 3.84375 1.203125q1.484375 1.203125 1.484375 3.546875l0 11.40625l2.59375 1.234375l0 0.625l-9.96875 0l0 -0.625l1.921875 -1.1875l0 -9.859375q0 -1.359375 -0.796875 -2.0625q-0.78125 -0.71875 -1.984375 -0.71875q-0.734375 0 -1.609375 0.265625q-0.859375 0.265625 -1.4375 0.78125l0 11.59375l1.96875 1.1875l0 0.625l-9.96875 0zm32.733307 0.390625q-3.984375 0 -6.28125 -2.296875q-2.296875 -2.3125 -2.296875 -6.09375q0 -2.9375 1.265625 -5.203125q1.28125 -2.265625 3.4375 -3.53125q2.171875 -1.28125 4.84375 -1.28125q3.125 0 4.859375 2.09375q1.75 2.078125 1.796875 5.90625l-0.15625 0.203125l-10.828125 0l0 0.1875q0 1.625 0.609375 2.96875q0.625 1.328125 1.953125 2.109375q1.34375 0.765625 3.46875 0.765625q1.125 0 2.34375 -0.265625q1.21875 -0.28125 2.53125 -0.9375l0.109375 0l0 0.609375q-0.96875 2.0625 -2.96875 3.421875q-1.984375 1.34375 -4.6875 1.34375zm0.078125 -16.671875q-1.34375 0 -2.21875 1.25q-0.875 1.234375 -1.109375 3.46875l6.546875 0q-0.28125 -2.65625 -1.109375 -3.6875q-0.828125 -1.03125 -2.109375 -1.03125zm10.251617 16.28125l0 -0.625l2.578125 -1.234375l0 -11.75l-2.46875 -1.578125l0 -0.46875l7.03125 -2.359375l0.46875 0l0.34375 2.859375l0.203125 0q1.34375 -1.34375 2.625 -2.09375q1.28125 -0.765625 3.046875 -0.765625q1.90625 0 3.25 0.8125q1.3593674 0.8125 1.7812424 2.4375l0.15625 0q1.46875 -1.546875 2.796875 -2.390625q1.34375 -0.859375 3.234375 -0.859375q2.28125 0 3.75 1.203125q1.46875 1.203125 1.46875 3.546875l0 11.40625l2.546875 1.234375l0 0.625l-9.96875 0l0 -0.625l1.96875 -1.234375l0 -9.8125q0 -1.359375 -0.75 -2.0625q-0.75 -0.71875 -1.953125 -0.71875q-0.859375 0 -1.671875 0.3125q-0.8125 0.296875 -1.390625 0.875l0 0l0 11.40625l1.9375 1.234375l0 0.625l-9.281242 0l0 -0.625l1.90625 -1.234375l0 -9.8125q0 -1.359375 -0.765625 -2.0625q-0.75 -0.71875 -1.953125 -0.71875q-0.6875 0 -1.5 0.265625q-0.8125 0.265625 -1.390625 0.734375l0 11.59375l1.859375 1.234375l0 0.625l-9.859375 0zm40.048805 -21.84375q-1.25 0 -2.046875 -0.78125q-0.78125 -0.796875 -0.78125 -2.0q0 -1.234375 0.78125 -2.03125q0.796875 -0.796875 2.046875 -0.796875q1.234375 0 2.015625 0.796875q0.796875 0.796875 0.796875 2.03125q0 1.203125 -0.796875 2.0q-0.78125 0.78125 -2.015625 0.78125zm-5.21875 21.84375l0 -0.625l2.578125 -1.234375l0 -11.75l-2.46875 -1.8125l0 -0.46875l7.46875 -2.125l0.453125 0l0 16.15625l2.28125 1.234375l0 0.625l-10.3125 0zm21.403778 0.390625q-2.46875 0 -4.359375 -1.046875q-1.890625 -1.046875 -2.9375 -2.9375q-1.046875 -1.890625 -1.046875 -4.40625q0 -2.9375 1.21875 -5.203125q1.21875 -2.265625 3.390625 -3.53125q2.1875 -1.28125 5.09375 -1.28125q1.8125 0 3.28125 0.5q1.46875 0.5 2.203125 1.390625q0.625 0.734375 0.625 1.171875q0 0.453125 -0.5 0.921875l-1.828125 1.546875l-0.265625 0l-1.34375 -1.890625q-0.671875 -0.890625 -1.328125 -1.40625q-0.65625 -0.53125 -1.734375 -0.53125q-1.78125 0 -2.6875 1.765625q-0.90625 1.75 -0.90625 4.6875q0 1.671875 0.578125 3.0625q0.578125 1.390625 1.828125 2.203125q1.265625 0.8125 3.28125 0.8125q1.078125 0 2.3125 -0.265625q1.234375 -0.28125 2.546875 -0.9375l0.125 0l0 0.609375q-0.96875 2.0625 -2.921875 3.421875q-1.953125 1.34375 -4.625 1.34375zm14.740875 -0.046875q-1.90625 0 -3.265625 -1.140625q-1.34375 -1.140625 -1.265625 -3.296875q0 -1.390625 0.53125 -2.375q0.546875 -0.984375 1.90625 -1.71875q1.359375 -0.734375 3.78125 -1.359375l3.640625 -0.890625l0 -2.390625q0 -1.46875 -0.890625 -2.359375q-0.890625 -0.890625 -2.28125 -0.890625q-1.234375 0 -1.78125 0.546875q-0.53125 0.53125 -0.53125 1.609375l0 1.78125l-0.15625 0.15625l-2.5625 0q-0.578125 0 -0.8125 -0.265625q-0.21875 -0.28125 -0.21875 -0.9375q0 -0.84375 0.671875 -1.65625q0.671875 -0.8125 1.796875 -1.515625q1.390625 -0.875 2.609375 -1.265625q1.21875 -0.390625 2.640625 -0.390625q1.90625 0 3.484375 0.5q1.59375 0.5 2.53125 1.609375q0.953125 1.09375 0.953125 2.84375l0 10.203125q0.609375 0.625 1.859375 0.625l1.109375 0l0.125 0.109375l0 0.546875q-0.421875 0.734375 -1.453125 1.359375q-1.03125 0.609375 -2.65625 0.609375q-1.609375 0 -2.640625 -0.671875q-1.03125 -0.6875 -1.5625 -1.953125l-0.234375 0q-0.96875 1.078125 -2.328125 1.828125q-1.34375 0.75 -3.0 0.75zm0.578125 -5.53125q0 1.25 0.671875 1.84375q0.671875 0.59375 1.875 0.59375q1.046875 0 2.203125 -0.453125l0 -5.6875q-1.9375 0.421875 -2.96875 0.9375q-1.015625 0.5 -1.40625 1.15625q-0.375 0.65625 -0.375 1.609375zm14.495117 5.1875l0 -0.625l2.59375 -1.234375l0 -22.71875l-2.484375 -1.828125l0 -0.453125l7.46875 -2.125l0.453125 0l0 27.125l2.28125 1.234375l0 0.625l-10.3125 0z" fill-rule="nonzero"/><defs><radialGradient id="p.2" gradientUnits="userSpaceOnUse" gradientTransform="matrix(11.613511824860213 0.0 0.0 11.613511824860213 0.0 0.0)" spreadMethod="pad" cx="41.74339415034249" cy="11.318045669569022" fx="41.74339415034249" fy="11.318045669569022" r="11.61351203918457"><stop offset="0.0" stop-color="#fff6db"/><stop offset="1.0" stop-color="#fad25c"/></radialGradient></defs><path fill="url(#p.2)" d="m389.41733 131.44226l0 0c0 -52.67144 42.69864 -95.37009 95.37009 -95.37009l0 0c25.293701 0 49.551453 10.04789 67.43683 27.933247c17.885376 17.88536 27.933228 42.143112 27.933228 67.43684l0 0c0 52.671432 -42.69861 95.37007 -95.370056 95.37007l0 0c-52.671448 0 -95.37009 -42.69864 -95.37009 -95.37007z" fill-rule="evenodd"/><path stroke="#000000" stroke-width="1.0" stroke-linejoin="round" stroke-linecap="butt" d="m389.41733 131.44226l0 0c0 -52.67144 42.69864 -95.37009 95.37009 -95.37009l0 0c25.293701 0 49.551453 10.04789 67.43683 27.933247c17.885376 17.88536 27.933228 42.143112 27.933228 67.43684l0 0c0 52.671432 -42.69861 95.37007 -95.370056 95.37007l0 0c-52.671448 0 -95.37009 -42.69864 -95.37009 -95.37007z" fill-rule="evenodd"/><path fill="#000000" fill-opacity="0.0" d="m389.41733 86.009186l190.74014 0l0 90.86615l-190.74014 0z" fill-rule="evenodd"/><path fill="#000000" d="m446.0948 145.56226l0 -0.625l3.28125 -1.578125l0 -21.109375l-3.28125 -1.578125l0 -0.625l13.21875 0q4.0625 0 6.390625 1.6875q2.34375 1.671875 2.34375 4.609375q0 2.125 -1.4375 3.65625q-1.421875 1.53125 -3.734375 2.421875l7.140625 10.96875l2.78125 1.546875l0 0.625l-8.375 0l-7.15625 -11.828125l-2.046875 0l0 9.59375l2.890625 1.609375l0 0.625l-12.015625 0zm10.671875 -23.390625l-1.546875 0l0 9.671875l1.78125 0q2.390625 0 3.78125 -1.34375q1.390625 -1.359375 1.390625 -3.53125q0 -2.28125 -1.375 -3.53125q-1.375 -1.265625 -4.03125 -1.265625zm26.089844 23.78125q-2.75 0 -4.84375 -1.25q-2.078125 -1.265625 -3.234375 -3.34375q-1.15625 -2.09375 -1.15625 -4.609375q0 -2.546875 1.15625 -4.640625q1.15625 -2.09375 3.234375 -3.328125q2.09375 -1.234375 4.84375 -1.234375q2.75 0 4.8125 1.234375q2.0625 1.234375 3.21875 3.328125q1.171875 2.09375 1.171875 4.640625q0 2.515625 -1.171875 4.609375q-1.15625 2.078125 -3.21875 3.34375q-2.0625 1.25 -4.8125 1.25zm0.421875 -1.890625q1.125 0 1.828125 -0.90625q0.71875 -0.921875 1.046875 -2.421875q0.328125 -1.515625 0.328125 -3.21875q0 -2.078125 -0.40625 -3.9375q-0.40625 -1.859375 -1.28125 -3.015625q-0.859375 -1.15625 -2.28125 -1.15625q-1.171875 0 -1.90625 0.90625q-0.734375 0.90625 -1.078125 2.40625q-0.34375 1.484375 -0.34375 3.21875q0 2.125 0.421875 3.96875q0.421875 1.828125 1.328125 3.0q0.921875 1.15625 2.34375 1.15625zm11.2543335 1.5l0 -0.625l2.59375 -1.234375l0 -22.71875l-2.484375 -1.828125l0 -0.453125l7.46875 -2.125l0.453125 0l0 27.125l2.28125 1.234375l0 0.625l-10.3125 0zm21.523804 0.390625q-3.984375 0 -6.28125 -2.296875q-2.296875 -2.3125 -2.296875 -6.09375q0 -2.9375 1.265625 -5.203125q1.28125 -2.265625 3.4375 -3.53125q2.171875 -1.28125 4.84375 -1.28125q3.125 0 4.859375 2.09375q1.75 2.078125 1.796875 5.90625l-0.15625 0.203125l-10.828125 0l0 0.1875q0 1.625 0.609375 2.96875q0.625 1.328125 1.953125 2.109375q1.34375 0.765625 3.46875 0.765625q1.125 0 2.34375 -0.265625q1.21875 -0.28125 2.53125 -0.9375l0.109375 0l0 0.609375q-0.96875 2.0625 -2.96875 3.421875q-1.984375 1.34375 -4.6875 1.34375zm0.078125 -16.671875q-1.34375 0 -2.21875 1.25q-0.875 1.234375 -1.109375 3.46875l6.546875 0q-0.28125 -2.65625 -1.109375 -3.6875q-0.828125 -1.03125 -2.109375 -1.03125z" fill-rule="nonzero"/><defs><radialGradient id="p.3" gradientUnits="userSpaceOnUse" gradientTransform="matrix(11.613511824860213 0.0 0.0 11.613511824860213 0.0 0.0)" spreadMethod="pad" cx="72.11710127216675" cy="11.318045669569022" fx="72.11710127216675" fy="11.318045669569022" r="11.61351203918457"><stop offset="0.0" stop-color="#dcecd5"/><stop offset="1.0" stop-color="#93bc81"/></radialGradient></defs><path fill="url(#p.3)" d="m742.1627 131.44226l0 0c0 -52.67144 42.69867 -95.37009 95.37012 -95.37009l0 0c25.293701 0 49.551453 10.04789 67.43683 27.933247c17.885315 17.88536 27.933228 42.143112 27.933228 67.43684l0 0c0 52.671432 -42.69867 95.37007 -95.370056 95.37007l0 0c-52.671448 0 -95.37012 -42.69864 -95.37012 -95.37007z" fill-rule="evenodd"/><path stroke="#000000" stroke-width="1.0" stroke-linejoin="round" stroke-linecap="butt" d="m742.1627 131.44226l0 0c0 -52.67144 42.69867 -95.37009 95.37012 -95.37009l0 0c25.293701 0 49.551453 10.04789 67.43683 27.933247c17.885315 17.88536 27.933228 42.143112 27.933228 67.43684l0 0c0 52.671432 -42.69867 95.37007 -95.370056 95.37007l0 0c-52.671448 0 -95.37012 -42.69864 -95.37012 -95.37007z" fill-rule="evenodd"/><path fill="#000000" fill-opacity="0.0" d="m756.4947 90.94095l162.07874 0l0 90.866135l-162.07874 0z" fill-rule="evenodd"/><path fill="#000000" d="m768.03235 127.49402l0 -0.625l3.28125 -1.578125l0 -21.109375l-3.28125 -1.578125l0 -0.625l21.0625 0l0 6.6875l-0.609375 0l-2.859375 -4.5625l-8.46875 0l0 9.171875l5.953125 0l2.15625 -3.328125l0.625 0l0 8.6875l-0.625 0l-2.15625 -3.234375l-5.953125 0l0 9.96875l9.390625 0l3.015625 -5.765625l0.609375 0l0 7.890625l-22.140625 0zm25.82489 0l0 -0.625l2.578125 -1.234375l0 -11.75l-2.46875 -1.578125l0 -0.46875l7.03125 -2.359375l0.46875 0l0.34375 2.859375l0.203125 0q1.390625 -1.34375 2.703125 -2.09375q1.3125 -0.765625 3.09375 -0.765625q2.359375 0 3.84375 1.203125q1.484375 1.203125 1.484375 3.546875l0 11.40625l2.59375 1.234375l0 0.625l-9.96875 0l0 -0.625l1.921875 -1.234375l0 -9.8125q0 -1.359375 -0.796875 -2.0625q-0.78125 -0.71875 -1.984375 -0.71875q-0.734375 0 -1.609375 0.265625q-0.859375 0.265625 -1.4375 0.78125l0 11.546875l1.96875 1.234375l0 0.625l-9.96875 0zm24.624695 0l0 -0.765625l8.34375 -15.046875l-5.5625 0l-2.09375 4.21875l-0.734375 0l0.421875 -6.421875l0.203125 0q0.53125 0.15625 1.328125 0.28125q0.796875 0.109375 1.453125 0.109375l11.640625 0l0 0.765625l-8.359375 15.046875l6.15625 0l1.765625 -4.484375l0.734375 0l0 6.296875l-15.296875 0zm20.592957 9.3125q-0.890625 0 -1.109375 -0.25q-0.203125 -0.25 -0.203125 -0.875l0 -2.65625l0.203125 -0.203125l1.734375 0q0.96875 0 1.59375 -0.140625q0.640625 -0.125 1.15625 -0.734375q0.53125 -0.59375 1.109375 -1.984375l1.015625 -2.4375l-7.703125 -16.0l-2.390625 -1.046875l0 -0.609375l10.671875 0l0 0.609375l-2.40625 1.125l0 0.125l4.265625 8.921875l0.265625 0l3.28125 -8.765625l0 -0.15625l-2.28125 -1.25l0 -0.609375l7.390625 0l0 0.609375l-2.75 1.28125l-7.734375 18.78125q-0.34375 0.890625 -0.59375 1.484375q-0.25 0.609375 -0.5625 1.171875q-0.3125 0.5625 -0.890625 1.375q-0.765625 1.109375 -1.90625 1.671875q-1.140625 0.5625 -2.15625 0.5625zm16.86438 -9.3125l0 -0.625l2.578125 -1.234375l0 -11.75l-2.46875 -1.578125l0 -0.46875l7.03125 -2.359375l0.46875 0l0.34375 2.859375l0.203125 0q1.34375 -1.34375 2.625 -2.09375q1.28125 -0.765625 3.046875 -0.765625q1.90625 0 3.25 0.8125q1.359375 0.8125 1.78125 2.4375l0.15625 0q1.46875 -1.546875 2.796875 -2.390625q1.34375 -0.859375 3.234375 -0.859375q2.28125 0 3.75 1.203125q1.46875 1.203125 1.46875 3.546875l0 11.40625l2.546875 1.234375l0 0.625l-9.96875 0l0 -0.625l1.96875 -1.234375l0 -9.8125q0 -1.359375 -0.75 -2.0625q-0.75 -0.71875 -1.953125 -0.71875q-0.859375 0 -1.671875 0.3125q-0.8125 0.296875 -1.390625 0.875l0 0l0 11.40625l1.9375 1.234375l0 0.625l-9.28125 0l0 -0.625l1.90625 -1.234375l0 -9.8125q0 -1.359375 -0.765625 -2.0625q-0.75 -0.71875 -1.953125 -0.71875q-0.6875 0 -1.5 0.265625q-0.8125 0.265625 -1.390625 0.734375l0 11.59375l1.859375 1.234375l0 0.625l-9.859375 0zm43.672974 0.390625q-3.984375 0 -6.28125 -2.296875q-2.296875 -2.3125 -2.296875 -6.09375q0 -2.9375 1.265625 -5.203125q1.28125 -2.265625 3.4375 -3.53125q2.171875 -1.28125 4.84375 -1.28125q3.125 0 4.859375 2.09375q1.75 2.078125 1.796875 5.90625l-0.15625 0.203125l-10.828125 0l0 0.1875q0 1.625 0.609375 2.96875q0.625 1.328125 1.953125 2.109375q1.34375 0.765625 3.46875 0.765625q1.125 0 2.34375 -0.265625q1.21875 -0.28125 2.53125 -0.9375l0.109375 0l0 0.609375q-0.96875 2.0625 -2.96875 3.421875q-1.984375 1.34375 -4.6875 1.34375zm0.078125 -16.671875q-1.34375 0 -2.21875 1.25q-0.875 1.234375 -1.109375 3.46875l6.546875 0q-0.28125 -2.65625 -1.109375 -3.6875q-0.828125 -1.03125 -2.109375 -1.03125z" fill-rule="nonzero"/><path fill="#000000" d="m806.27856 173.88464q-4.0625 0 -7.125 -1.65625q-3.046875 -1.671875 -4.734375 -4.515625q-1.671875 -2.84375 -1.671875 -6.4375q0 -2.890625 1.15625 -5.359375q1.171875 -2.484375 3.15625 -4.359375q1.984375 -1.875 4.515625 -2.921875q2.546875 -1.046875 5.328125 -1.046875q2.046875 0 3.390625 0.234375q1.359375 0.234375 2.4375 0.671875q1.09375 0.421875 2.171875 0.953125l0.421875 7.234375l-0.6875 0l-3.6875 -6.0q-0.953125 -0.609375 -1.8125 -0.875q-0.84375 -0.28125 -2.046875 -0.28125q-2.359375 0 -4.234375 1.421875q-1.875 1.40625 -2.953125 3.984375q-1.078125 2.5625 -1.078125 5.953125q0 3.375 1.03125 5.828125q1.046875 2.453125 2.84375 3.796875q1.796875 1.328125 4.046875 1.328125q1.421875 0 2.5625 -0.359375q1.140625 -0.375 2.1875 -0.953125l3.484375 -5.1875l0.65625 0l-0.546875 6.53125q-1.578125 0.921875 -3.8125 1.46875q-2.21875 0.546875 -5.0 0.546875zm13.187744 -0.390625l0 -0.625l2.59375 -1.234375l0 -22.71875l-2.484375 -1.828125l0 -0.453125l7.46875 -2.125l0.453125 0l0 27.125l2.28125 1.234375l0 0.625l-10.3125 0zm17.320679 0.34375q-1.90625 0 -3.265625 -1.140625q-1.34375 -1.140625 -1.265625 -3.296875q0 -1.390625 0.53125 -2.375q0.546875 -0.984375 1.90625 -1.71875q1.359375 -0.734375 3.78125 -1.359375l3.640625 -0.890625l0 -2.390625q0 -1.46875 -0.890625 -2.359375q-0.890625 -0.890625 -2.28125 -0.890625q-1.234375 0 -1.78125 0.546875q-0.53125 0.53125 -0.53125 1.609375l0 1.78125l-0.15625 0.15625l-2.5625 0q-0.578125 0 -0.8125 -0.265625q-0.21875 -0.28125 -0.21875 -0.9375q0 -0.84375 0.671875 -1.65625q0.671875 -0.8125 1.796875 -1.515625q1.390625 -0.875 2.609375 -1.265625q1.21875 -0.390625 2.640625 -0.390625q1.90625 0 3.484375 0.5q1.59375 0.5 2.53125 1.609375q0.953125 1.09375 0.953125 2.84375l0 10.203125q0.609375 0.625 1.859375 0.625l1.109375 0l0.125 0.109375l0 0.546875q-0.421875 0.734375 -1.453125 1.359375q-1.03125 0.609375 -2.65625 0.609375q-1.609375 0 -2.640625 -0.671875q-1.03125 -0.6875 -1.5625 -1.953125l-0.234375 0q-0.96875 1.078125 -2.328125 1.828125q-1.34375 0.75 -3.0 0.75zm0.578125 -5.53125q0 1.25 0.671875 1.84375q0.671875 0.59375 1.875 0.59375q1.046875 0 2.203125 -0.453125l0 -5.6875q-1.9375 0.421875 -2.96875 0.9375q-1.015625 0.5 -1.40625 1.15625q-0.375 0.65625 -0.375 1.609375zm21.525513 5.578125q-1.890625 0 -3.3125 -0.375q-1.40625 -0.359375 -2.75 -1.015625l0 -4.484375l0.578125 0l1.34375 2.0q1.4375 2.171875 3.984375 2.171875q3.015625 0 3.015625 -2.203125q0 -0.8125 -0.421875 -1.3125q-0.421875 -0.5 -1.375 -0.96875q-0.953125 -0.46875 -2.609375 -1.15625q-2.15625 -0.890625 -3.203125 -2.09375q-1.046875 -1.203125 -1.046875 -2.96875q0 -1.671875 0.859375 -3.015625q0.875 -1.359375 2.375 -2.171875q1.515625 -0.8125 3.40625 -0.8125q1.328125 0 2.578125 0.28125q1.25 0.265625 2.453125 0.875l0 4.609375l-0.578125 0l-1.203125 -1.828125q-0.734375 -1.109375 -1.515625 -1.65625q-0.765625 -0.546875 -1.84375 -0.546875q-1.15625 0 -1.875 0.59375q-0.71875 0.578125 -0.71875 1.609375q0 0.703125 0.328125 1.1875q0.328125 0.484375 1.171875 0.953125q0.859375 0.453125 2.453125 1.078125q1.078125 0.421875 2.140625 0.984375q1.0625 0.5625 1.78125 1.59375q0.71875 1.015625 0.71875 2.828125q0 1.8125 -0.96875 3.140625q-0.96875 1.3125 -2.5 2.015625q-1.53125 0.6875 -3.265625 0.6875zm16.506104 0q-1.890625 0 -3.3125 -0.375q-1.40625 -0.359375 -2.75 -1.015625l0 -4.484375l0.578125 0l1.34375 2.0q1.4375 2.171875 3.984375 2.171875q3.015625 0 3.015625 -2.203125q0 -0.8125 -0.421875 -1.3125q-0.421875 -0.5 -1.375 -0.96875q-0.953125 -0.46875 -2.609375 -1.15625q-2.15625 -0.890625 -3.203125 -2.09375q-1.046875 -1.203125 -1.046875 -2.96875q0 -1.671875 0.859375 -3.015625q0.875 -1.359375 2.375 -2.171875q1.515625 -0.8125 3.40625 -0.8125q1.328125 0 2.578125 0.28125q1.25 0.265625 2.453125 0.875l0 4.609375l-0.578125 0l-1.203125 -1.828125q-0.734375 -1.109375 -1.515625 -1.65625q-0.765625 -0.546875 -1.84375 -0.546875q-1.15625 0 -1.875 0.59375q-0.71875 0.578125 -0.71875 1.609375q0 0.703125 0.328125 1.1875q0.328125 0.484375 1.171875 0.953125q0.859375 0.453125 2.453125 1.078125q1.078125 0.421875 2.140625 0.984375q1.0625 0.5625 1.78125 1.59375q0.71875 1.015625 0.71875 2.828125q0 1.8125 -0.96875 3.140625q-0.96875 1.3125 -2.5 2.015625q-1.53125 0.6875 -3.265625 0.6875z" fill-rule="nonzero"/><defs><linearGradient id="p.4" gradientUnits="userSpaceOnUse" gradientTransform="matrix(8.984676368618901 0.0 0.0 8.984676368618901 0.0 0.0)" spreadMethod="pad" x1="29.306824770860487" y1="16.296484053894837" x2="38.29150113947939" y2="16.296484053894837"><stop offset="0.0" stop-color="#f6b26b"/><stop offset="1.0" stop-color="#ffd966"/></linearGradient></defs><path fill="url(#p.4)" d="m263.31235 123.95407l65.74802 0l0 -7.4881897l14.976379 14.976379l-14.976379 14.976379l0 -7.4881897l-65.74802 0z" fill-rule="evenodd"/><path stroke="#bf9000" stroke-width="1.0" stroke-linejoin="round" stroke-linecap="butt" d="m263.31235 123.95407l65.74802 0l0 -7.4881897l14.976379 14.976379l-14.976379 14.976379l0 -7.4881897l-65.74802 0z" fill-rule="evenodd"/><defs><linearGradient id="p.5" gradientUnits="userSpaceOnUse" gradientTransform="matrix(8.984676368618901 0.0 0.0 8.984676368618901 0.0 0.0)" spreadMethod="pad" x1="69.09518771658266" y1="16.296484053894837" x2="78.07986408520156" y2="16.296484053894837"><stop offset="0.0" stop-color="#ffd966"/><stop offset="1.0" stop-color="#b6d7a8"/></linearGradient></defs><path fill="url(#p.5)" d="m620.7979 123.95407l65.74805 0l0 -7.4881897l14.976379 14.976379l-14.976379 14.976379l0 -7.4881897l-65.74805 0z" fill-rule="evenodd"/><path stroke="#38761d" stroke-width="1.0" stroke-linejoin="round" stroke-linecap="butt" d="m620.7979 123.95407l65.74805 0l0 -7.4881897l14.976379 14.976379l-14.976379 14.976379l0 -7.4881897l-65.74805 0z" fill-rule="evenodd"/><path fill="#000000" fill-opacity="0.0" d="m245.94226 152.87534l115.46457 0l0 35.590546l-115.46457 0z" fill-rule="evenodd"/><path fill="#000000" d="m260.6013 178.1506l0 -0.34375l1.8125 -0.875l0 -11.640625l-1.8125 -0.875l0 -0.34375l6.703125 0l0 0.34375l-1.671875 0.875l0 5.03125l5.90625 0l0 -5.03125l-1.703125 -0.875l0 -0.34375l6.71875 0l0 0.34375l-1.796875 0.875l0 11.640625l1.796875 0.875l0 0.34375l-6.71875 0l0 -0.34375l1.703125 -0.875l0 -5.4375l-5.90625 0l0 5.4375l1.671875 0.875l0 0.34375l-6.703125 0zm20.111633 0.1875q-1.046875 0 -1.796875 -0.625q-0.734375 -0.625 -0.703125 -1.828125q0 -0.765625 0.296875 -1.296875q0.3125 -0.546875 1.046875 -0.953125q0.75 -0.40625 2.09375 -0.75l2.0 -0.5l0 -1.3125q0 -0.8125 -0.484375 -1.296875q-0.484375 -0.5 -1.25 -0.5q-0.6875 0 -0.984375 0.296875q-0.296875 0.296875 -0.296875 0.90625l0 0.96875l-0.09375 0.09375l-1.40625 0q-0.3125 0 -0.453125 -0.140625q-0.125 -0.15625 -0.125 -0.515625q0 -0.46875 0.375 -0.921875q0.375 -0.453125 1.0 -0.828125q0.765625 -0.5 1.4375 -0.703125q0.671875 -0.21875 1.453125 -0.21875q1.046875 0 1.921875 0.28125q0.875 0.265625 1.390625 0.875q0.53125 0.609375 0.53125 1.578125l0 5.625q0.34375 0.34375 1.015625 0.34375l0.625 0l0.0625 0.0625l0 0.296875q-0.234375 0.40625 -0.796875 0.75q-0.5625 0.34375 -1.46875 0.34375q-0.890625 0 -1.453125 -0.375q-0.5625 -0.375 -0.859375 -1.078125l-0.140625 0q-0.53125 0.59375 -1.28125 1.015625q-0.734375 0.40625 -1.65625 0.40625zm0.328125 -3.046875q0 0.6875 0.359375 1.015625q0.375 0.328125 1.046875 0.328125q0.578125 0 1.203125 -0.25l0 -3.140625q-1.0625 0.234375 -1.625 0.515625q-0.5625 0.28125 -0.78125 0.640625q-0.203125 0.359375 -0.203125 0.890625zm11.8689575 3.078125q-1.046875 0 -1.828125 -0.203125q-0.765625 -0.203125 -1.515625 -0.5625l0 -2.484375l0.3125 0l0.75 1.109375q0.796875 1.203125 2.203125 1.203125q1.65625 0 1.65625 -1.21875q0 -0.453125 -0.234375 -0.71875q-0.234375 -0.28125 -0.765625 -0.53125q-0.515625 -0.265625 -1.421875 -0.65625q-1.203125 -0.484375 -1.78125 -1.140625q-0.5625 -0.671875 -0.5625 -1.65625q0 -0.90625 0.46875 -1.65625q0.484375 -0.75 1.3125 -1.1875q0.828125 -0.453125 1.875 -0.453125q0.734375 0 1.421875 0.15625q0.6875 0.140625 1.359375 0.484375l0 2.53125l-0.328125 0l-0.65625 -1.0q-0.40625 -0.609375 -0.84375 -0.90625q-0.421875 -0.3125 -1.015625 -0.3125q-0.640625 0 -1.03125 0.328125q-0.390625 0.3125 -0.390625 0.890625q0 0.390625 0.171875 0.65625q0.1875 0.265625 0.65625 0.53125q0.46875 0.25 1.34375 0.578125q0.59375 0.234375 1.171875 0.546875q0.59375 0.3125 0.984375 0.875q0.40625 0.5625 0.40625 1.578125q0 1.0 -0.53125 1.734375q-0.53125 0.71875 -1.375 1.109375q-0.84375 0.375 -1.8125 0.375zm11.136841 -0.21875l0 -0.34375l1.8125 -0.875l0 -11.640625l-1.8125 -0.875l0 -0.34375l7.296875 0q2.234375 0 3.515625 0.9375q1.296875 0.921875 1.296875 2.546875q0 1.171875 -0.796875 2.015625q-0.78125 0.84375 -2.0625 1.328125l3.953125 6.0625l1.53125 0.84375l0 0.34375l-4.625 0l-3.9375 -6.53125l-1.140625 0l0 5.296875l1.609375 0.890625l0 0.34375l-6.640625 0zm5.890625 -12.90625l-0.859375 0l0 5.328125l0.984375 0q1.328125 0 2.09375 -0.734375q0.765625 -0.75 0.765625 -1.953125q0 -1.25 -0.765625 -1.9375q-0.75 -0.703125 -2.21875 -0.703125zm14.3932495 13.125q-1.515625 0 -2.671875 -0.6875q-1.140625 -0.703125 -1.78125 -1.84375q-0.640625 -1.15625 -0.640625 -2.546875q0 -1.40625 0.640625 -2.5625q0.640625 -1.15625 1.78125 -1.828125q1.15625 -0.6875 2.671875 -0.6875q1.515625 0 2.65625 0.6875q1.140625 0.671875 1.78125 1.828125q0.640625 1.15625 0.640625 2.5625q0 1.390625 -0.640625 2.546875q-0.640625 1.140625 -1.78125 1.84375q-1.140625 0.6875 -2.65625 0.6875zm0.234375 -1.046875q0.625 0 1.015625 -0.5q0.390625 -0.5 0.5625 -1.328125q0.1875 -0.84375 0.1875 -1.78125q0 -1.15625 -0.21875 -2.171875q-0.21875 -1.03125 -0.703125 -1.671875q-0.484375 -0.640625 -1.265625 -0.640625q-0.640625 0 -1.046875 0.515625q-0.40625 0.5 -0.609375 1.328125q-0.1875 0.8125 -0.1875 1.765625q0 1.171875 0.234375 2.1875q0.234375 1.015625 0.734375 1.65625q0.515625 0.640625 1.296875 0.640625zm6.2134094 0.828125l0 -0.34375l1.421875 -0.6875l0 -12.53125l-1.359375 -1.0l0 -0.265625l4.109375 -1.171875l0.265625 0l0 14.96875l1.25 0.6875l0 0.34375l-5.6875 0zm11.874878 0.21875q-2.203125 0 -3.46875 -1.265625q-1.265625 -1.28125 -1.265625 -3.375q0 -1.609375 0.703125 -2.859375q0.703125 -1.25 1.890625 -1.953125q1.203125 -0.703125 2.671875 -0.703125q1.734375 0 2.6875 1.15625q0.953125 1.140625 0.984375 3.25l-0.09375 0.109375l-5.96875 0l0 0.109375q0 0.890625 0.34375 1.640625q0.34375 0.734375 1.078125 1.15625q0.734375 0.421875 1.90625 0.421875q0.625 0 1.296875 -0.140625q0.671875 -0.15625 1.390625 -0.515625l0.0625 0l0 0.34375q-0.53125 1.125 -1.640625 1.875q-1.09375 0.75 -2.578125 0.75zm0.046875 -9.203125q-0.75 0 -1.234375 0.6875q-0.484375 0.6875 -0.609375 1.921875l3.609375 0q-0.15625 -1.46875 -0.609375 -2.03125q-0.453125 -0.578125 -1.15625 -0.578125z" fill-rule="nonzero"/><path fill="#000000" fill-opacity="0.0" d="m591.33466 152.87665l130.17322 0l0 55.149597l-130.17322 0z" fill-rule="evenodd"/><path fill="#000000" d="m606.00244 174.93144l0 -0.34375l1.296875 -0.71875l5.5625 -13.125l1.890625 0l5.5 13.078125l1.453125 0.765625l0 0.34375l-6.75 0l0 -0.34375l1.859375 -0.765625l-1.453125 -3.546875l-5.046875 0l-1.453125 3.546875l1.765625 0.765625l0 0.34375l-4.625 0zm4.796875 -5.828125l4.078125 0l-2.03125 -4.96875l-2.046875 4.96875zm16.30011 6.046875q-1.375 0 -2.421875 -0.578125q-1.03125 -0.578125 -1.609375 -1.625q-0.578125 -1.046875 -0.578125 -2.4375q0 -1.609375 0.671875 -2.859375q0.671875 -1.25 1.875 -1.953125q1.203125 -0.703125 2.796875 -0.703125q1.015625 0 1.8125 0.28125q0.8125 0.265625 1.21875 0.765625q0.34375 0.40625 0.34375 0.640625q0 0.25 -0.28125 0.515625l-1.0 0.84375l-0.140625 0l-0.75 -1.046875q-0.359375 -0.484375 -0.734375 -0.765625q-0.359375 -0.296875 -0.953125 -0.296875q-0.984375 0 -1.484375 0.96875q-0.5 0.96875 -0.5 2.59375q0 0.921875 0.3125 1.6875q0.328125 0.765625 1.015625 1.21875q0.703125 0.4375 1.8125 0.4375q0.59375 0 1.265625 -0.140625q0.6875 -0.15625 1.421875 -0.515625l0.0625 0l0 0.34375q-0.53125 1.125 -1.609375 1.875q-1.078125 0.75 -2.546875 0.75zm9.619751 0q-1.3125 0 -2.140625 -0.546875q-0.828125 -0.5625 -0.828125 -1.5625l0 -6.875l-1.53125 0l0 -0.296875l1.953125 -0.65625l2.15625 -2.359375l0.40625 0l0 2.359375l2.96875 0l0 0.953125l-2.96875 0l0 6.328125q0 0.5625 0.46875 0.828125q0.46875 0.25 1.109375 0.25q0.40625 0 0.71875 -0.046875q0.3125 -0.0625 0.609375 -0.125l0.0625 0.03125l0 0.375q-0.359375 0.5 -1.171875 0.921875q-0.8125 0.421875 -1.8125 0.421875zm7.092041 -12.265625q-0.671875 0 -1.109375 -0.4375q-0.4375 -0.4375 -0.4375 -1.109375q0 -0.671875 0.4375 -1.109375q0.4375 -0.4375 1.109375 -0.4375q0.6875 0 1.125 0.4375q0.4375 0.4375 0.4375 1.109375q0 0.671875 -0.4375 1.109375q-0.4375 0.4375 -1.125 0.4375zm-2.875 12.046875l0 -0.34375l1.4375 -0.6875l0 -6.46875l-1.375 -1.015625l0 -0.25l4.125 -1.171875l0.25 0l0 8.90625l1.265625 0.6875l0 0.34375l-5.703125 0zm11.136536 0l-4.0625 -8.8125l-1.3125 -0.578125l0 -0.328125l6.03125 0l0 0.328125l-1.46875 0.625l0 0.0625l2.21875 4.75l0.078125 0l1.96875 -4.65625l0 -0.09375l-1.34375 -0.6875l0 -0.328125l4.203125 0l0 0.328125l-1.515625 0.734375l-3.984375 8.65625l-0.8125 0zm8.761597 0.1875q-1.046875 0 -1.796875 -0.625q-0.734375 -0.625 -0.703125 -1.828125q0 -0.765625 0.296875 -1.296875q0.3125 -0.546875 1.046875 -0.953125q0.75 -0.40625 2.09375 -0.75l2.0 -0.5l0 -1.3125q0 -0.8125 -0.484375 -1.296875q-0.484375 -0.5 -1.25 -0.5q-0.6875 0 -0.984375 0.296875q-0.296875 0.296875 -0.296875 0.90625l0 0.96875l-0.09375 0.09375l-1.40625 0q-0.3125 0 -0.453125 -0.140625q-0.125 -0.15625 -0.125 -0.515625q0 -0.46875 0.375 -0.921875q0.375 -0.453125 1.0 -0.828125q0.765625 -0.5 1.4375 -0.703125q0.671875 -0.21875 1.453125 -0.21875q1.046875 0 1.921875 0.28125q0.875 0.265625 1.390625 0.875q0.53125 0.609375 0.53125 1.578125l0 5.625q0.34375 0.34375 1.015625 0.34375l0.625 0l0.0625 0.0625l0 0.296875q-0.234375 0.40625 -0.796875 0.75q-0.5625 0.34375 -1.46875 0.34375q-0.890625 0 -1.453125 -0.375q-0.5625 -0.375 -0.859375 -1.078125l-0.140625 0q-0.53125 0.59375 -1.28125 1.015625q-0.734375 0.40625 -1.65625 0.40625zm0.328125 -3.046875q0 0.6875 0.359375 1.015625q0.375 0.328125 1.046875 0.328125q0.578125 0 1.203125 -0.25l0 -3.140625q-1.0625 0.234375 -1.625 0.515625q-0.5625 0.28125 -0.78125 0.640625q-0.203125 0.359375 -0.203125 0.890625zm12.1345825 3.078125q-1.3125 0 -2.140625 -0.546875q-0.828125 -0.5625 -0.828125 -1.5625l0 -6.875l-1.53125 0l0 -0.296875l1.953125 -0.65625l2.15625 -2.359375l0.40625 0l0 2.359375l2.96875 0l0 0.953125l-2.96875 0l0 6.328125q0 0.5625 0.46875 0.828125q0.46875 0.25 1.109375 0.25q0.40625 0 0.71875 -0.046875q0.3125 -0.0625 0.609375 -0.125l0.0625 0.03125l0 0.375q-0.359375 0.5 -1.171875 0.921875q-0.8125 0.421875 -1.8125 0.421875zm8.932861 0q-2.203125 0 -3.46875 -1.265625q-1.265625 -1.28125 -1.265625 -3.375q0 -1.609375 0.703125 -2.859375q0.703125 -1.25 1.890625 -1.953125q1.203125 -0.703125 2.671875 -0.703125q1.734375 0 2.6875 1.15625q0.953125 1.140625 0.984375 3.25l-0.09375 0.109375l-5.96875 0l0 0.109375q0 0.890625 0.34375 1.640625q0.34375 0.734375 1.078125 1.15625q0.734375 0.421875 1.90625 0.421875q0.625 0 1.296875 -0.140625q0.671875 -0.15625 1.390625 -0.515625l0.0625 0l0 0.34375q-0.53125 1.125 -1.640625 1.875q-1.09375 0.75 -2.578125 0.75zm0.046875 -9.203125q-0.75 0 -1.234375 0.6875q-0.484375 0.6875 -0.609375 1.921875l3.609375 0q-0.15625 -1.46875 -0.609375 -2.03125q-0.453125 -0.578125 -1.15625 -0.578125zm9.438171 9.203125q-1.046875 0 -1.828125 -0.203125q-0.765625 -0.203125 -1.515625 -0.5625l0 -2.484375l0.3125 0l0.75 1.109375q0.796875 1.203125 2.203125 1.203125q1.65625 0 1.65625 -1.21875q0 -0.453125 -0.234375 -0.71875q-0.234375 -0.28125 -0.765625 -0.53125q-0.515625 -0.265625 -1.421875 -0.65625q-1.203125 -0.484375 -1.78125 -1.140625q-0.5625 -0.671875 -0.5625 -1.65625q0 -0.90625 0.46875 -1.65625q0.484375 -0.75 1.3125 -1.1875q0.828125 -0.453125 1.875 -0.453125q0.734375 0 1.421875 0.15625q0.6875 0.140625 1.359375 0.484375l0 2.53125l-0.328125 0l-0.65625 -1.0q-0.40625 -0.609375 -0.84375 -0.90625q-0.421875 -0.3125 -1.015625 -0.3125q-0.640625 0 -1.03125 0.328125q-0.390625 0.3125 -0.390625 0.890625q0 0.390625 0.171875 0.65625q0.1875 0.265625 0.65625 0.53125q0.46875 0.25 1.34375 0.578125q0.59375 0.234375 1.171875 0.546875q0.59375 0.3125 0.984375 0.875q0.40625 0.5625 0.40625 1.578125q0 1.0 -0.53125 1.734375q-0.53125 0.71875 -1.375 1.109375q-0.84375 0.375 -1.8125 0.375zm10.199341 2.34375l4.265625 -18.5625l1.0625 0l-4.265625 18.5625l-1.0625 0z" fill-rule="nonzero"/><path fill="#000000" d="m617.7565 200.93144l0 -0.34375l1.8125 -0.875l0 -11.640625l-1.8125 -0.875l0 -0.34375l6.84375 0l0 0.34375l-1.8125 0.875l0 11.640625l1.8125 0.875l0 0.34375l-6.84375 0zm8.480469 0l0 -0.34375l1.4375 -0.6875l0 -6.46875l-1.375 -0.875l0 -0.265625l3.890625 -1.296875l0.25 0l0.203125 1.578125l0.09375 0q0.765625 -0.75 1.484375 -1.15625q0.734375 -0.421875 1.71875 -0.421875q1.296875 0 2.109375 0.671875q0.828125 0.65625 0.828125 1.953125l0 6.28125l1.4375 0.6875l0 0.34375l-5.5 0l0 -0.34375l1.0625 -0.6875l0 -5.40625q0 -0.75 -0.4375 -1.140625q-0.4375 -0.40625 -1.09375 -0.40625q-0.40625 0 -0.890625 0.15625q-0.484375 0.15625 -0.796875 0.421875l0 6.375l1.078125 0.6875l0 0.34375l-5.5 0zm13.180786 0l0 -0.34375l1.4375 -0.6875l0 -12.53125l-1.375 -1.0l0 -0.265625l4.09375 -1.171875l0.265625 0l0 7.640625l0.078125 0q0.765625 -0.75 1.484375 -1.15625q0.734375 -0.421875 1.71875 -0.421875q1.296875 0 2.109375 0.671875q0.828125 0.65625 0.828125 1.953125l0 6.28125l1.4375 0.6875l0 0.34375l-5.5 0l0 -0.34375l1.0625 -0.65625l0 -5.4375q0 -0.75 -0.4375 -1.140625q-0.4375 -0.40625 -1.09375 -0.40625q-0.40625 0 -0.890625 0.15625q-0.484375 0.15625 -0.796875 0.421875l0 6.40625l1.078125 0.65625l0 0.34375l-5.5 0zm16.060059 -12.046875q-0.671875 0 -1.109375 -0.4375q-0.4375 -0.4375 -0.4375 -1.109375q0 -0.671875 0.4375 -1.109375q0.4375 -0.4375 1.109375 -0.4375q0.6875 0 1.125 0.4375q0.4375 0.4375 0.4375 1.109375q0 0.671875 -0.4375 1.109375q-0.4375 0.4375 -1.125 0.4375zm-2.875 12.046875l0 -0.34375l1.4375 -0.6875l0 -6.46875l-1.375 -1.015625l0 -0.25l4.125 -1.171875l0.25 0l0 8.90625l1.265625 0.6875l0 0.34375l-5.703125 0zm8.321045 0.078125l0 -13.640625l-1.375 -1.0l0 -0.265625l4.109375 -1.171875l0.25 0l0 7.34375l0.125 0q0.765625 -0.6875 1.484375 -0.984375q0.734375 -0.296875 1.59375 -0.296875q0.9375 0 1.75 0.5625q0.828125 0.5625 1.3125 1.609375q0.5 1.046875 0.5 2.5q0 1.703125 -0.703125 2.9375q-0.6875 1.21875 -1.828125 1.890625q-1.125 0.65625 -2.484375 0.65625q-0.921875 0 -1.6875 -0.203125q-0.765625 -0.1875 -1.421875 -0.609375l-1.375 0.671875l-0.25 0zm4.40625 -8.265625q-0.375 0 -0.703125 0.109375q-0.328125 0.09375 -0.71875 0.3125l0 6.171875q0.625 0.703125 1.59375 0.703125q0.53125 0 1.03125 -0.328125q0.515625 -0.34375 0.828125 -1.171875q0.328125 -0.828125 0.328125 -2.34375q0 -1.765625 -0.734375 -2.609375q-0.71875 -0.84375 -1.625 -0.84375zm9.663025 -3.859375q-0.671875 0 -1.109375 -0.4375q-0.4375 -0.4375 -0.4375 -1.109375q0 -0.671875 0.4375 -1.109375q0.4375 -0.4375 1.109375 -0.4375q0.6875 0 1.125 0.4375q0.4375 0.4375 0.4375 1.109375q0 0.671875 -0.4375 1.109375q-0.4375 0.4375 -1.125 0.4375zm-2.875 12.046875l0 -0.34375l1.4375 -0.6875l0 -6.46875l-1.375 -1.015625l0 -0.25l4.125 -1.171875l0.25 0l0 8.90625l1.265625 0.6875l0 0.34375l-5.703125 0zm11.11792 0.21875q-1.3125 0 -2.140625 -0.546875q-0.828125 -0.5625 -0.828125 -1.5625l0 -6.875l-1.53125 0l0 -0.296875l1.953125 -0.65625l2.15625 -2.359375l0.40625 0l0 2.359375l2.96875 0l0 0.953125l-2.96875 0l0 6.328125q0 0.5625 0.46875 0.828125q0.46875 0.25 1.109375 0.25q0.40625 0 0.71875 -0.046875q0.3125 -0.0625 0.609375 -0.125l0.0625 0.03125l0 0.375q-0.359375 0.5 -1.171875 0.921875q-0.8125 0.421875 -1.8125 0.421875zm7.967102 0q-1.046875 0 -1.828125 -0.203125q-0.765625 -0.203125 -1.515625 -0.5625l0 -2.484375l0.3125 0l0.75 1.109375q0.796875 1.203125 2.203125 1.203125q1.65625 0 1.65625 -1.21875q0 -0.453125 -0.234375 -0.71875q-0.234375 -0.28125 -0.765625 -0.53125q-0.515625 -0.265625 -1.421875 -0.65625q-1.203125 -0.484375 -1.78125 -1.140625q-0.5625 -0.671875 -0.5625 -1.65625q0 -0.90625 0.46875 -1.65625q0.484375 -0.75 1.3125 -1.1875q0.828125 -0.453125 1.875 -0.453125q0.734375 0 1.421875 0.15625q0.6875 0.140625 1.359375 0.484375l0 2.53125l-0.328125 0l-0.65625 -1.0q-0.40625 -0.609375 -0.84375 -0.90625q-0.421875 -0.3125 -1.015625 -0.3125q-0.640625 0 -1.03125 0.328125q-0.390625 0.3125 -0.390625 0.890625q0 0.390625 0.171875 0.65625q0.1875 0.265625 0.65625 0.53125q0.46875 0.25 1.34375 0.578125q0.59375 0.234375 1.171875 0.546875q0.59375 0.3125 0.984375 0.875q0.40625 0.5625 0.40625 1.578125q0 1.0 -0.53125 1.734375q-0.53125 0.71875 -1.375 1.109375q-0.84375 0.375 -1.8125 0.375z" fill-rule="nonzero"/><defs><radialGradient id="p.6" gradientUnits="userSpaceOnUse" gradientTransform="matrix(11.613511824860213 0.0 0.0 11.613511824860213 0.0 0.0)" spreadMethod="pad" cx="102.49080839399102" cy="11.318045669569022" fx="102.49080839399102" fy="11.318045669569022" r="11.61351203918457"><stop offset="0.0" stop-color="#dbd4eb"/><stop offset="1.0" stop-color="#9180bb"/></radialGradient></defs><path fill="url(#p.6)" d="m1094.9081 131.44226l0 0c0 -52.67144 42.69873 -95.37009 95.37012 -95.37009l0 0c25.293701 0 49.551514 10.04789 67.43689 27.933247c17.885376 17.88536 27.933228 42.143112 27.933228 67.43684l0 0c0 52.671432 -42.69861 95.37007 -95.37012 95.37007l0 0c-52.671387 0 -95.37012 -42.69864 -95.37012 -95.37007z" fill-rule="evenodd"/><path stroke="#000000" stroke-width="1.0" stroke-linejoin="round" stroke-linecap="butt" d="m1094.9081 131.44226l0 0c0 -52.67144 42.69873 -95.37009 95.37012 -95.37009l0 0c25.293701 0 49.551514 10.04789 67.43689 27.933247c17.885376 17.88536 27.933228 42.143112 27.933228 67.43684l0 0c0 52.671432 -42.69861 95.37007 -95.37012 95.37007l0 0c-52.671387 0 -95.37012 -42.69864 -95.37012 -95.37007z" fill-rule="evenodd"/><path fill="#000000" fill-opacity="0.0" d="m1091.2389 86.82284l198.07874 0l0 101.57481l-198.07874 0z" fill-rule="evenodd"/><path fill="#000000" d="m1103.8394 128.45024l0 -0.5937576l3.171875 -1.53125l0.796875 -20.390625l-3.296875 -1.53125l0 -0.59375l9.265625 0l7.5 17.359375l7.421875 -17.359375l8.96875 0l0 0.59375l-3.25 1.171875l0.640625 20.75l2.828125 1.53125l0 0.5937576l-11.3125 0l0 -0.5937576l2.984375 -1.5l-0.375 -17.734375l-8.5 20.015633l-2.09375 0l-8.578125 -19.937508l-0.5 17.65625l3.25 1.5l0 0.5937576l-8.921875 0zm45.813477 0.375q-2.65625 0 -4.671875 -1.2031326q-2.015625 -1.21875 -3.140625 -3.234375q-1.109375 -2.015625 -1.109375 -4.453125q0 -2.453125 1.109375 -4.46875q1.125 -2.015625 3.140625 -3.203125q2.015625 -1.203125 4.671875 -1.203125q2.640625 0 4.640625 1.203125q2.0 1.1875 3.109375 3.203125q1.125 2.015625 1.125 4.46875q0 2.4375 -1.125 4.453125q-1.109375 2.015625 -3.109375 3.234375q-2.0 1.2031326 -4.640625 1.2031326zm0.40625 -1.8281326q1.078125 0 1.765625 -0.875q0.703125 -0.875 1.015625 -2.328125q0.3125 -1.46875 0.3125 -3.109375q0 -2.015625 -0.390625 -3.796875q-0.390625 -1.796875 -1.234375 -2.921875q-0.84375 -1.125 -2.21875 -1.125q-1.125 0 -1.828125 0.890625q-0.703125 0.875 -1.046875 2.3125q-0.328125 1.4375 -0.328125 3.109375q0 2.0625 0.40625 3.828125q0.40625 1.765625 1.28125 2.890625q0.875 1.125 2.265625 1.125zm10.856079 1.4531326l0 -0.5937576l2.5 -1.203125l0 -21.9375l-2.390625 -1.765625l0 -0.4375l7.21875 -2.0625l0.4375 0l0 26.203125l2.203125 1.203125l0 0.5937576l-9.96875 0zm20.793945 0.375q-3.84375 0 -6.0625 -2.2187576q-2.21875 -2.21875 -2.21875 -5.890625q0 -2.828125 1.21875 -5.015625q1.234375 -2.1875 3.328125 -3.40625q2.09375 -1.234375 4.671875 -1.234375q3.015625 0 4.6875 2.015625q1.6875 2.015625 1.734375 5.703125l-0.15625 0.1875l-10.453125 0l0 0.1875q0 1.5625 0.59375 2.859375q0.609375 1.28125 1.890625 2.03125q1.296875 0.75 3.34375 0.75q1.078125 0 2.25 -0.265625q1.1875 -0.265625 2.453125 -0.890625l0.109375 0l0 0.59375q-0.9375 1.984375 -2.859375 3.296875q-1.921875 1.2968826 -4.53125 1.2968826zm0.078125 -16.093758q-1.3125 0 -2.15625 1.203125q-0.828125 1.1875 -1.0625 3.359375l6.3125 0q-0.265625 -2.578125 -1.0625 -3.5625q-0.796875 -1.0 -2.03125 -1.0zm18.666016 16.093758q-2.390625 0 -4.21875 -1.0000076q-1.828125 -1.015625 -2.84375 -2.84375q-1.0 -1.828125 -1.0 -4.265625q0 -2.828125 1.171875 -5.015625q1.171875 -2.1875 3.28125 -3.40625q2.109375 -1.234375 4.90625 -1.234375q1.765625 0 3.171875 0.484375q1.421875 0.484375 2.140625 1.34375q0.59375 0.703125 0.59375 1.109375q0 0.453125 -0.484375 0.90625l-1.75 1.484375l-0.265625 0l-1.3125 -1.828125q-0.625 -0.859375 -1.265625 -1.359375q-0.640625 -0.5 -1.6875 -0.5q-1.703125 0 -2.59375 1.703125q-0.875 1.6875 -0.875 4.53125q0 1.609375 0.5625 2.953125q0.5625 1.34375 1.765625 2.125q1.21875 0.78125 3.15625 0.78125q1.046875 0 2.234375 -0.265625q1.203125 -0.265625 2.46875 -0.890625l0.125 0l0 0.59375q-0.9375 1.984375 -2.828125 3.296875q-1.875 1.2968826 -4.453125 1.2968826zm16.723022 0q-2.25 0 -3.6875 -1.1562576q-1.421875 -1.15625 -1.421875 -3.4375l0 -11.015625l-2.46875 -1.1875l0 -0.59375l7.71875 0l0 11.265625q0 1.3125 0.75 2.0q0.75 0.6875 1.90625 0.6875q0.703125 0 1.484375 -0.25q0.796875 -0.265625 1.359375 -0.71875l0 -11.203125l-2.25 -1.1875l0 -0.59375l7.5 0l0 15.265625l2.359375 1.15625l0 0.5937576l-7.609375 0l0 -2.3906326l-0.15625 0q-1.3125 1.3125 -2.546875 2.0468826q-1.21875 0.71875 -2.9375 0.71875zm14.961182 -0.375l0 -0.5937576l2.5 -1.203125l0 -21.9375l-2.390625 -1.765625l0 -0.4375l7.21875 -2.0625l0.4375 0l0 26.203125l2.203125 1.203125l0 0.5937576l-9.96875 0zm16.731567 0.34375q-1.828125 0 -3.140625 -1.0937576q-1.3125 -1.109375 -1.234375 -3.203125q0 -1.34375 0.515625 -2.296875q0.53125 -0.953125 1.828125 -1.65625q1.3125 -0.71875 3.671875 -1.3125l3.5 -0.859375l0 -2.3125q0 -1.421875 -0.859375 -2.28125q-0.84375 -0.859375 -2.1875 -0.859375q-1.203125 0 -1.734375 0.53125q-0.515625 0.515625 -0.515625 1.5625l0 1.71875l-0.140625 0.140625l-2.46875 0q-0.5625 0 -0.796875 -0.25q-0.21875 -0.265625 -0.21875 -0.90625q0 -0.8125 0.65625 -1.59375q0.65625 -0.796875 1.734375 -1.46875q1.34375 -0.84375 2.515625 -1.21875q1.1875 -0.375 2.5625 -0.375q1.828125 0 3.359375 0.484375q1.53125 0.484375 2.4375 1.546875q0.921875 1.0625 0.921875 2.75l0 9.84375q0.59375 0.59375 1.796875 0.59375l1.078125 0l0.109375 0.125l0 0.515625q-0.40625 0.703125 -1.40625 1.3125076q-0.984375 0.59375 -2.546875 0.59375q-1.5625 0 -2.5625 -0.65625q-0.984375 -0.6562576 -1.5 -1.8906326l-0.234375 0q-0.921875 1.046875 -2.234375 1.7812576q-1.3125 0.734375 -2.90625 0.734375zm0.5625 -5.3437576q0 1.1875 0.640625 1.765625q0.65625 0.578125 1.8125 0.578125q1.015625 0 2.125 -0.4375l0 -5.484375q-1.859375 0.40625 -2.859375 0.890625q-0.984375 0.484375 -1.359375 1.125q-0.359375 0.625 -0.359375 1.5625zm14.2178955 5.0000076l0 -0.5937576l2.46875 -1.203125l0 -11.125l-2.359375 -1.75l0 -0.453125l6.796875 -2.265625l0.4375 0l0.34375 3.359375l0.1875 0q0.890625 -1.421875 1.59375 -2.140625q0.71875 -0.734375 1.34375 -0.96875q0.640625 -0.25 1.390625 -0.25q0.296875 0 0.6875 0.09375q0.390625 0.09375 0.6875 0.203125q1.125 0.328125 1.125 1.046875q0 0.328125 -0.140625 0.625l-0.90625 2.4375l-0.265625 0l-0.96875 -0.34375q-0.96875 -0.328125 -1.96875 -0.328125q-1.578125 0 -2.734375 1.453125l0 10.40625l3.03125 1.203125l0 0.5937576l-10.75 0z" fill-rule="nonzero"/><path fill="#000000" d="m1113.4735 173.45023l0 -0.59375l3.171875 -1.53125l0 -20.390625l-3.171875 -1.53125l0 -0.59375l19.96875 0l0 6.46875l-0.59375 0l-2.53125 -4.40625l-8.03125 0l0 8.953125l5.375 0l2.09375 -3.203125l0.59375 0l0 8.171875l-0.59375 0l-2.09375 -3.140625l-5.375 0l0 9.671875l3.8125 1.53125l0 0.59375l-12.625 0zm29.904785 0.375q-2.25 0 -3.6875 -1.15625q-1.421875 -1.15625 -1.421875 -3.4375l0 -11.015625l-2.46875 -1.1875l0 -0.59375l7.71875 0l0 11.265625q0 1.3125 0.75 2.0q0.75 0.6875 1.90625 0.6875q0.703125 0 1.484375 -0.25q0.796875 -0.265625 1.359375 -0.71875l0 -11.203125l-2.25 -1.1875l0 -0.59375l7.5 0l0 15.265625l2.359375 1.15625l0 0.59375l-7.609375 0l0 -2.390625l-0.15625 0q-1.3125 1.3125 -2.546875 2.046875q-1.21875 0.71875 -2.9375 0.71875zm15.039307 -0.375l0 -0.59375l2.5 -1.203125l0 -11.34375l-2.390625 -1.53125l0 -0.453125l6.796875 -2.265625l0.453125 0l0.328125 2.765625l0.1875 0q1.34375 -1.3125 2.609375 -2.03125q1.28125 -0.734375 2.984375 -0.734375q2.28125 0 3.71875 1.15625q1.4375 1.15625 1.4375 3.4375l0 11.0l2.5 1.203125l0 0.59375l-9.625 0l0 -0.59375l1.859375 -1.203125l0 -9.46875q0 -1.3125 -0.765625 -2.0q-0.765625 -0.6875 -1.921875 -0.6875q-0.703125 0 -1.546875 0.265625q-0.84375 0.25 -1.390625 0.734375l0 11.15625l1.890625 1.203125l0 0.59375l-9.625 0zm31.396973 0.375q-2.390625 0 -4.21875 -1.0q-1.828125 -1.015625 -2.84375 -2.84375q-1.0 -1.828125 -1.0 -4.265625q0 -2.828125 1.171875 -5.015625q1.171875 -2.1875 3.28125 -3.40625q2.109375 -1.234375 4.90625 -1.234375q1.765625 0 3.171875 0.484375q1.421875 0.484375 2.140625 1.34375q0.59375 0.703125 0.59375 1.109375q0 0.453125 -0.484375 0.90625l-1.75 1.484375l-0.265625 0l-1.3125 -1.828125q-0.625 -0.859375 -1.265625 -1.359375q-0.640625 -0.5 -1.6875 -0.5q-1.703125 0 -2.59375 1.703125q-0.875 1.6875 -0.875 4.53125q0 1.609375 0.5625 2.953125q0.5625 1.34375 1.765625 2.125q1.21875 0.78125 3.15625 0.78125q1.046875 0 2.234375 -0.265625q1.203125 -0.265625 2.46875 -0.890625l0.125 0l0 0.59375q-0.9375 1.984375 -2.828125 3.296875q-1.875 1.296875 -4.453125 1.296875zm16.83252 0q-2.28125 0 -3.734375 -0.96875q-1.453125 -0.96875 -1.453125 -2.734375l0 -12.015625l-2.6875 0l0 -0.515625l3.4375 -1.15625l3.765625 -4.109375l0.703125 0l0 4.109375l5.1875 0l0 1.671875l-5.1875 0l0 11.09375q0 0.96875 0.8125 1.421875q0.828125 0.4375 1.953125 0.4375q0.71875 0 1.25 -0.09375q0.546875 -0.09375 1.0625 -0.203125l0.109375 0.078125l0 0.625q-0.625 0.90625 -2.046875 1.640625q-1.421875 0.71875 -3.171875 0.71875zm12.424316 -21.46875q-1.1875 0 -1.953125 -0.765625q-0.765625 -0.765625 -0.765625 -1.921875q0 -1.1875 0.765625 -1.953125q0.765625 -0.765625 1.953125 -0.765625q1.203125 0 1.96875 0.765625q0.765625 0.765625 0.765625 1.953125q0 1.15625 -0.765625 1.921875q-0.765625 0.765625 -1.96875 0.765625zm-5.03125 21.09375l0 -0.59375l2.5 -1.203125l0 -11.34375l-2.390625 -1.75l0 -0.453125l7.203125 -2.046875l0.453125 0l0 15.59375l2.203125 1.203125l0 0.59375l-9.96875 0zm21.430298 0.375q-2.65625 0 -4.671875 -1.203125q-2.015625 -1.21875 -3.140625 -3.234375q-1.109375 -2.015625 -1.109375 -4.453125q0 -2.453125 1.109375 -4.46875q1.125 -2.015625 3.140625 -3.203125q2.015625 -1.203125 4.671875 -1.203125q2.640625 0 4.640625 1.203125q2.0 1.1875 3.109375 3.203125q1.125 2.015625 1.125 4.46875q0 2.4375 -1.125 4.453125q-1.109375 2.015625 -3.109375 3.234375q-2.0 1.203125 -4.640625 1.203125zm0.40625 -1.828125q1.078125 0 1.765625 -0.875q0.703125 -0.875 1.015625 -2.328125q0.3125 -1.46875 0.3125 -3.109375q0 -2.015625 -0.390625 -3.796875q-0.390625 -1.796875 -1.234375 -2.921875q-0.84375 -1.125 -2.21875 -1.125q-1.125 0 -1.828125 0.890625q-0.703125 0.875 -1.046875 2.3125q-0.328125 1.4375 -0.328125 3.109375q0 2.0625 0.40625 3.828125q0.40625 1.765625 1.28125 2.890625q0.875 1.125 2.265625 1.125zm10.934204 1.453125l0 -0.59375l2.5 -1.203125l0 -11.34375l-2.390625 -1.53125l0 -0.453125l6.796875 -2.265625l0.453125 0l0.328125 2.765625l0.1875 0q1.34375 -1.3125 2.609375 -2.03125q1.28125 -0.734375 2.984375 -0.734375q2.28125 0 3.71875 1.15625q1.4375 1.15625 1.4375 3.4375l0 11.0l2.5 1.203125l0 0.59375l-9.625 0l0 -0.59375l1.859375 -1.203125l0 -9.46875q0 -1.3125 -0.765625 -2.0q-0.765625 -0.6875 -1.921875 -0.6875q-0.703125 0 -1.546875 0.265625q-0.84375 0.25 -1.390625 0.734375l0 11.15625l1.890625 1.203125l0 0.59375l-9.625 0z" fill-rule="nonzero"/><defs><linearGradient id="p.7" gradientUnits="userSpaceOnUse" gradientTransform="matrix(8.984676368618901 0.0 0.0 8.984676368618901 0.0 0.0)" spreadMethod="pad" x1="108.3559682223996" y1="16.296484053894837" x2="117.34064459101849" y2="16.296484053894837"><stop offset="0.0" stop-color="#93c47d"/><stop offset="1.0" stop-color="#b4a7d6"/></linearGradient></defs><path fill="url(#p.7)" d="m973.54333 123.95407l65.74805 0l0 -7.4881897l14.976318 14.976379l-14.976318 14.976379l0 -7.4881897l-65.74805 0z" fill-rule="evenodd"/><path stroke="#351c75" stroke-width="1.0" stroke-linejoin="round" stroke-linecap="butt" d="m973.54333 123.95407l65.74805 0l0 -7.4881897l14.976318 14.976379l-14.976318 14.976379l0 -7.4881897l-65.74805 0z" fill-rule="evenodd"/><path fill="#000000" fill-opacity="0.0" d="m932.86615 152.87665l162.07867 0l0 55.149597l-162.07867 0z" fill-rule="evenodd"/><path fill="#000000" d="m961.19183 174.93144l0 -0.34375l1.8125 -0.875l0 -11.640625l-1.8125 -0.875l0 -0.34375l7.28125 0q2.53125 0 4.296875 0.84375q1.78125 0.828125 2.703125 2.28125q0.921875 1.4375 0.921875 3.28125q0 1.65625 -0.609375 3.0625q-0.59375 1.40625 -1.6875 2.4375q-1.09375 1.015625 -2.5625 1.59375q-1.46875 0.578125 -3.21875 0.578125l-7.125 0zm6.40625 -12.90625l-1.375 0l0 11.734375l1.671875 0q2.46875 0 3.8125 -1.578125q1.34375 -1.59375 1.34375 -4.265625q0 -2.6875 -1.375 -4.28125q-1.375 -1.609375 -4.078125 -1.609375zm15.43634 13.125q-2.203125 0 -3.46875 -1.265625q-1.265625 -1.28125 -1.265625 -3.375q0 -1.609375 0.703125 -2.859375q0.703125 -1.25 1.890625 -1.953125q1.203125 -0.703125 2.671875 -0.703125q1.734375 0 2.6875 1.15625q0.953125 1.140625 0.984375 3.25l-0.09375 0.109375l-5.96875 0l0 0.109375q0 0.890625 0.34375 1.640625q0.34375 0.734375 1.078125 1.15625q0.734375 0.421875 1.90625 0.421875q0.625 0 1.296875 -0.140625q0.671875 -0.15625 1.390625 -0.515625l0.0625 0l0 0.34375q-0.53125 1.125 -1.640625 1.875q-1.09375 0.75 -2.578125 0.75zm0.046875 -9.203125q-0.75 0 -1.234375 0.6875q-0.484375 0.6875 -0.609375 1.921875l3.609375 0q-0.15625 -1.46875 -0.609375 -2.03125q-0.453125 -0.578125 -1.15625 -0.578125zm5.7506714 8.984375l0 -0.34375l1.4375 -0.6875l0 -7.734375l-1.625 0l0 -0.953125l1.625 0l0 -0.6875q0 -0.75 0.53125 -1.703125q0.546875 -0.96875 1.53125 -1.84375q0.984375 -0.890625 2.265625 -1.46875q1.28125 -0.578125 2.75 -0.578125q0.609375 0 1.09375 0.078125q0.5 0.078125 0.859375 0.203125q0.625 0.234375 0.625 0.546875q0 0.171875 -0.125 0.4375l-0.734375 1.3125l-0.203125 0l-0.515625 -0.25q-0.640625 -0.359375 -1.15625 -0.5625q-0.515625 -0.21875 -1.1875 -0.21875q-1.453125 0 -2.09375 0.890625q-0.640625 0.890625 -0.640625 2.578125l0 1.265625l7.828125 0l0 8.6875l1.28125 0.6875l0 0.34375l-5.703125 0l0 -0.34375l1.4375 -0.6875l0 -7.734375l-4.84375 0l0 7.765625l1.640625 0.65625l0 0.34375l-6.078125 0zm14.905701 0l0 -0.34375l1.4375 -0.6875l0 -6.46875l-1.375 -0.875l0 -0.265625l3.890625 -1.296875l0.25 0l0.203125 1.578125l0.09375 0q0.765625 -0.75 1.484375 -1.15625q0.734375 -0.421875 1.71875 -0.421875q1.296875 0 2.109375 0.671875q0.828125 0.65625 0.828125 1.953125l0 6.28125l1.4375 0.6875l0 0.34375l-5.5 0l0 -0.34375l1.0625 -0.6875l0 -5.40625q0 -0.75 -0.4375 -1.140625q-0.4375 -0.40625 -1.09375 -0.40625q-0.40625 0 -0.890625 0.15625q-0.484375 0.15625 -0.796875 0.421875l0 6.375l1.078125 0.6875l0 0.34375l-5.5 0zm18.071472 0.21875q-2.203125 0 -3.46875 -1.265625q-1.265625 -1.28125 -1.265625 -3.375q0 -1.609375 0.703125 -2.859375q0.703125 -1.25 1.890625 -1.953125q1.203125 -0.703125 2.671875 -0.703125q1.734314 0 2.687439 1.15625q0.953125 1.140625 0.984375 3.25l-0.09375 0.109375l-5.968689 0l0 0.109375q0 0.890625 0.34375 1.640625q0.34375 0.734375 1.078125 1.15625q0.734375 0.421875 1.90625 0.421875q0.625 0 1.296814 -0.140625q0.671875 -0.15625 1.390625 -0.515625l0.0625 0l0 0.34375q-0.53125 1.125 -1.640625 1.875q-1.093689 0.75 -2.578064 0.75zm0.046875 -9.203125q-0.75 0 -1.234375 0.6875q-0.484375 0.6875 -0.609375 1.921875l3.609375 0q-0.15625 -1.46875 -0.609375 -2.03125q-0.453125 -0.578125 -1.15625 -0.578125zm9.506653 9.203125q-0.9375 0 -1.765625 -0.53125q-0.8125 -0.546875 -1.3125 -1.515625q-0.5 -0.984375 -0.5 -2.328125q0 -1.765625 0.640625 -3.0625q0.640625 -1.3125 1.765625 -2.015625q1.125 -0.703125 2.59375 -0.703125q1.03125 0 1.78125 0.1875l0 -3.8125l-1.46875 -1.03125l0 -0.234375l4.1875 -1.171875l0.265625 0l0 15.046875l1.484375 0.609375l0 0.34375l-4.265625 0l-0.171875 -1.0625l-0.140625 0q-0.796875 0.671875 -1.515625 0.984375q-0.71875 0.296875 -1.578125 0.296875zm-0.578125 -5.03125q0 1.703125 0.71875 2.5q0.734375 0.78125 1.625 0.78125q0.390625 0 0.71875 -0.109375q0.328125 -0.109375 0.71875 -0.328125l0 -6.171875q-0.28125 -0.328125 -0.640625 -0.5q-0.359375 -0.171875 -0.8125 -0.171875q-0.625 0 -1.15625 0.34375q-0.53125 0.34375 -0.859375 1.203125q-0.3125 0.859375 -0.3125 2.453125zm16.000732 4.890625l0 -13.640625l-1.375 -1.0l0 -0.265625l4.109375 -1.171875l0.25 0l0 7.34375l0.125 0q0.765625 -0.6875 1.484375 -0.984375q0.734375 -0.296875 1.59375 -0.296875q0.9375 0 1.75 0.5625q0.828125 0.5625 1.3125 1.609375q0.5 1.046875 0.5 2.5q0 1.703125 -0.703125 2.9375q-0.6875 1.21875 -1.828125 1.890625q-1.125 0.65625 -2.484375 0.65625q-0.921875 0 -1.6875 -0.203125q-0.765625 -0.1875 -1.421875 -0.609375l-1.375 0.671875l-0.25 0zm4.40625 -8.265625q-0.375 0 -0.703125 0.109375q-0.328125 0.09375 -0.71875 0.3125l0 6.171875q0.625 0.703125 1.59375 0.703125q0.53125 0 1.03125 -0.328125q0.515625 -0.34375 0.828125 -1.171875q0.328125 -0.828125 0.328125 -2.34375q0 -1.765625 -0.734375 -2.609375q-0.71875 -0.84375 -1.625 -0.84375zm7.9785156 13.328125q-0.484375 0 -0.609375 -0.140625q-0.109375 -0.140625 -0.109375 -0.484375l0 -1.46875l0.109375 -0.109375l0.953125 0q0.53125 0 0.875 -0.078125q0.359375 -0.0625 0.640625 -0.390625q0.296875 -0.328125 0.625 -1.109375l0.546875 -1.34375l-4.25 -8.828125l-1.3125 -0.578125l0 -0.328125l5.890625 0l0 0.328125l-1.328125 0.625l0 0.0625l2.34375 4.921875l0.15625 0l1.8125 -4.828125l0 -0.09375l-1.265625 -0.6875l0 -0.328125l4.078125 0l0 0.328125l-1.515625 0.703125l-4.265625 10.375q-0.1875 0.484375 -0.328125 0.8125q-0.140625 0.34375 -0.3125 0.640625q-0.171875 0.3125 -0.484375 0.765625q-0.4375 0.609375 -1.0625 0.921875q-0.625 0.3125 -1.1875 0.3125z" fill-rule="nonzero"/><path fill="#000000" d="m970.0218 200.93144l0 -0.34375l1.8125 -0.875l0 -11.640625l-1.8125 -0.875l0 -0.34375l11.40625 0l0 3.6875l-0.34375 0l-1.4375 -2.515625l-4.59375 0l0 5.125l3.078125 0l1.1875 -1.84375l0.34375 0l0 4.671875l-0.34375 0l-1.1875 -1.78125l-3.078125 0l0 5.515625l2.171875 0.875l0 0.34375l-7.203125 0zm17.091492 0.21875q-1.28125 0 -2.109375 -0.65625q-0.8125 -0.671875 -0.8125 -1.96875l0 -6.296875l-1.421875 -0.6875l0 -0.328125l4.421875 0l0 6.4375q0 0.75 0.421875 1.140625q0.4375 0.390625 1.09375 0.390625q0.40625 0 0.84375 -0.140625q0.453125 -0.15625 0.78125 -0.40625l0 -6.40625l-1.28125 -0.6875l0 -0.328125l4.28125 0l0 8.71875l1.34375 0.65625l0 0.34375l-4.34375 0l0 -1.359375l-0.09375 0q-0.75 0.734375 -1.453125 1.15625q-0.703125 0.421875 -1.671875 0.421875zm8.583679 -0.21875l0 -0.34375l1.4375 -0.6875l0 -6.46875l-1.375 -0.875l0 -0.265625l3.890625 -1.296875l0.25 0l0.203125 1.578125l0.09375 0q0.765625 -0.75 1.484375 -1.15625q0.734375 -0.421875 1.71875 -0.421875q1.296875 0 2.109375 0.671875q0.828125 0.65625 0.828125 1.953125l0 6.28125l1.4375 0.6875l0 0.34375l-5.5 0l0 -0.34375l1.0625 -0.6875l0 -5.40625q0 -0.75 -0.4375 -1.140625q-0.4375 -0.40625 -1.09375 -0.40625q-0.40625 0 -0.890625 0.15625q-0.484375 0.15625 -0.796875 0.421875l0 6.375l1.078125 0.6875l0 0.34375l-5.5 0zm17.946411 0.21875q-1.375 0 -2.421875 -0.578125q-1.03125 -0.578125 -1.609375 -1.625q-0.578125 -1.046875 -0.578125 -2.4375q0 -1.609375 0.671875 -2.859375q0.671875 -1.25 1.875 -1.953125q1.203125 -0.703125 2.796875 -0.703125q1.015625 0 1.8125 0.28125q0.8125 0.265625 1.21875 0.765625q0.34375 0.40625 0.34375 0.640625q0 0.25 -0.28125 0.515625l-1.0 0.84375l-0.140625 0l-0.75 -1.046875q-0.359375 -0.484375 -0.734375 -0.765625q-0.359375 -0.296875 -0.953125 -0.296875q-0.984375 0 -1.484375 0.96875q-0.5 0.96875 -0.5 2.59375q0 0.921875 0.3125 1.6875q0.328125 0.765625 1.015625 1.21875q0.703125 0.4375 1.8125 0.4375q0.59375 0 1.265625 -0.140625q0.6875 -0.15625 1.421875 -0.515625l0.0625 0l0 0.34375q-0.53125 1.125 -1.609375 1.875q-1.078125 0.75 -2.546875 0.75zm9.619751 0q-1.3125 0 -2.140625 -0.546875q-0.828125 -0.5625 -0.828125 -1.5625l0 -6.875l-1.53125 0l0 -0.296875l1.953125 -0.65625l2.15625 -2.359375l0.40625 0l0 2.359375l2.968811 0l0 0.953125l-2.968811 0l0 6.328125q0 0.5625 0.46875 0.828125q0.46881104 0.25 1.109436 0.25q0.40625 0 0.71875 -0.046875q0.3125 -0.0625 0.609375 -0.125l0.0625 0.03125l0 0.375q-0.359375 0.5 -1.171875 0.921875q-0.8125 0.421875 -1.812561 0.421875zm7.092102 -12.265625q-0.671875 0 -1.109375 -0.4375q-0.4375 -0.4375 -0.4375 -1.109375q0 -0.671875 0.4375 -1.109375q0.4375 -0.4375 1.109375 -0.4375q0.6875 0 1.125 0.4375q0.4375 0.4375 0.4375 1.109375q0 0.671875 -0.4375 1.109375q-0.4375 0.4375 -1.125 0.4375zm-2.875 12.046875l0 -0.34375l1.4375 -0.6875l0 -6.46875l-1.375 -1.015625l0 -0.25l4.125 -1.171875l0.25 0l0 8.90625l1.265625 0.6875l0 0.34375l-5.703125 0zm12.24292 0.21875q-1.515625 0 -2.671875 -0.6875q-1.140625 -0.703125 -1.78125 -1.84375q-0.640625 -1.15625 -0.640625 -2.546875q0 -1.40625 0.640625 -2.5625q0.640625 -1.15625 1.78125 -1.828125q1.15625 -0.6875 2.671875 -0.6875q1.515625 0 2.65625 0.6875q1.140625 0.671875 1.78125 1.828125q0.640625 1.15625 0.640625 2.5625q0 1.390625 -0.640625 2.546875q-0.640625 1.140625 -1.78125 1.84375q-1.140625 0.6875 -2.65625 0.6875zm0.234375 -1.046875q0.625 0 1.015625 -0.5q0.390625 -0.5 0.5625 -1.328125q0.1875 -0.84375 0.1875 -1.78125q0 -1.15625 -0.21875 -2.171875q-0.21875 -1.03125 -0.703125 -1.671875q-0.484375 -0.640625 -1.265625 -0.640625q-0.640625 0 -1.046875 0.515625q-0.40625 0.5 -0.609375 1.328125q-0.1875 0.8125 -0.1875 1.765625q0 1.171875 0.234375 2.1875q0.234375 1.015625 0.734375 1.65625q0.515625 0.640625 1.296875 0.640625zm6.244629 0.828125l0 -0.34375l1.4375 -0.6875l0 -6.46875l-1.375 -0.875l0 -0.265625l3.890625 -1.296875l0.25 0l0.203125 1.578125l0.09375 0q0.765625 -0.75 1.484375 -1.15625q0.734375 -0.421875 1.71875 -0.421875q1.296875 0 2.109375 0.671875q0.828125 0.65625 0.828125 1.953125l0 6.28125l1.4375 0.6875l0 0.34375l-5.5 0l0 -0.34375l1.0625 -0.6875l0 -5.40625q0 -0.75 -0.4375 -1.140625q-0.4375 -0.40625 -1.09375 -0.40625q-0.40625 0 -0.890625 0.15625q-0.484375 0.15625 -0.796875 0.421875l0 6.375l1.078125 0.6875l0 0.34375l-5.5 0z" fill-rule="nonzero"/></g></svg>