<svg version="1.1" viewBox="0.0 0.0 960.0971128608924 262.88451443569556" fill="none" stroke="none" stroke-linecap="square" stroke-miterlimit="10" xmlns:xlink="http://www.w3.org/1999/xlink" xmlns="http://www.w3.org/2000/svg"><clipPath id="p.0"><path d="m0 0l960.0971 0l0 262.88452l-960.0971 0l0 -262.88452z" clip-rule="nonzero"/></clipPath><g clip-path="url(#p.0)"><path fill="#000000" fill-opacity="0.0" d="m0 0l960.0971 0l0 262.88452l-960.0971 0z" fill-rule="evenodd"/><defs><radialGradient id="p.1" gradientUnits="userSpaceOnUse" gradientTransform="matrix(11.613511824860213 0.0 0.0 11.613511824860213 0.0 0.0)" spreadMethod="pad" cx="10.553369354450325" cy="11.318045669569022" fx="10.553369354450325" fy="11.318045669569022" r="11.61351203918457"><stop offset="0.0" stop-color="#fdecdb"/><stop offset="1.0" stop-color="#f0a963"/></radialGradient></defs><path fill="url(#p.1)" d="m27.1916 131.44226l0 0c0 -52.67144 42.698635 -95.37009 95.37007 -95.37009l0 0c25.293716 0 49.551468 10.04789 67.43683 27.933247c17.88536 17.88536 27.933258 42.143112 27.933258 67.43684l0 0c0 52.671432 -42.69864 95.37007 -95.37009 95.37007l0 0c-52.67144 0 -95.37007 -42.69864 -95.37007 -95.37007z" fill-rule="evenodd"/><path stroke="#000000" stroke-width="1.0" stroke-linejoin="round" stroke-linecap="butt" d="m27.1916 131.44226l0 0c0 -52.67144 42.698635 -95.37009 95.37007 -95.37009l0 0c25.293716 0 49.551468 10.04789 67.43683 27.933247c17.88536 17.88536 27.933258 42.143112 27.933258 67.43684l0 0c0 52.671432 -42.69864 95.37007 -95.37009 95.37007l0 0c-52.67144 0 -95.37007 -42.69864 -95.37007 -95.37007z" fill-rule="evenodd"/><path fill="#000000" fill-opacity="0.0" d="m27.192913 86.009186l190.74016 0l0 90.86615l-190.74016 0z" fill-rule="evenodd"/><path fill="#000000" d="m53.34705 145.95288q-4.0625 0 -7.125 -1.65625q-3.046875 -1.671875 -4.734375 -4.515625q-1.671875 -2.84375 -1.671875 -6.4375q0 -2.890625 1.15625 -5.359375q1.171875 -2.484375 3.15625 -4.359375q1.984375 -1.875 4.515625 -2.921875q2.546875 -1.046875 5.328125 -1.046875q2.046875 0 3.390625 0.234375q1.359375 0.234375 2.4375 0.671875q1.09375 0.421875 2.171875 0.953125l0.421875 7.234375l-0.6875 0l-3.6875 -6.0q-0.953125 -0.609375 -1.8125 -0.875q-0.84375 -0.28125 -2.046875 -0.28125q-2.359375 0 -4.234375 1.421875q-1.875 1.40625 -2.953125 3.984375q-1.078125 2.5625 -1.078125 5.953125q0 3.375 1.03125 5.828125q1.046875 2.453125 2.84375 3.796875q1.796875 1.328125 4.046875 1.328125q1.421875 0 2.5625 -0.359375q1.140625 -0.375 2.1875 -0.953125l3.484375 -5.1875l0.65625 0l-0.546875 6.53125q-1.578125 0.921875 -3.8125 1.46875q-2.21875 0.546875 -5.0 0.546875zm13.265842 -0.390625l0 -0.625l2.578125 -1.234375l0 -22.71875l-2.46875 -1.828125l0 -0.453125l7.421875 -2.125l0.46875 0l0 13.828125l0.15625 0q1.390625 -1.34375 2.703125 -2.09375q1.3125 -0.765625 3.09375 -0.765625q2.359375 0 3.84375 1.203125q1.484375 1.203125 1.484375 3.546875l0 11.40625l2.59375 1.234375l0 0.625l-9.96875 0l0 -0.625l1.921875 -1.1875l0 -9.859375q0 -1.359375 -0.796875 -2.0625q-0.78125 -0.71875 -1.984375 -0.71875q-0.734375 0 -1.609375 0.265625q-0.859375 0.265625 -1.4375 0.78125l0 11.59375l1.96875 1.1875l0 0.625l-9.96875 0zm32.733307 0.390625q-3.984375 0 -6.28125 -2.296875q-2.296875 -2.3125 -2.296875 -6.09375q0 -2.9375 1.265625 -5.203125q1.28125 -2.265625 3.4375 -3.53125q2.171875 -1.28125 4.84375 -1.28125q3.125 0 4.859375 2.09375q1.75 2.078125 1.796875 5.90625l-0.15625 0.203125l-10.828125 0l0 0.1875q0 1.625 0.609375 2.96875q0.625 1.328125 1.953125 2.109375q1.34375 0.765625 3.46875 0.765625q1.125 0 2.34375 -0.265625q1.21875 -0.28125 2.53125 -0.9375l0.109375 0l0 0.609375q-0.96875 2.0625 -2.96875 3.421875q-1.984375 1.34375 -4.6875 1.34375zm0.078125 -16.671875q-1.34375 0 -2.21875 1.25q-0.875 1.234375 -1.109375 3.46875l6.546875 0q-0.28125 -2.65625 -1.109375 -3.6875q-0.828125 -1.03125 -2.109375 -1.03125zm10.251617 16.28125l0 -0.625l2.578125 -1.234375l0 -11.75l-2.46875 -1.578125l0 -0.46875l7.03125 -2.359375l0.46875 0l0.34375 2.859375l0.203125 0q1.34375 -1.34375 2.625 -2.09375q1.28125 -0.765625 3.046875 -0.765625q1.90625 0 3.25 0.8125q1.3593674 0.8125 1.7812424 2.4375l0.15625 0q1.46875 -1.546875 2.796875 -2.390625q1.34375 -0.859375 3.234375 -0.859375q2.28125 0 3.75 1.203125q1.46875 1.203125 1.46875 3.546875l0 11.40625l2.546875 1.234375l0 0.625l-9.96875 0l0 -0.625l1.96875 -1.234375l0 -9.8125q0 -1.359375 -0.75 -2.0625q-0.75 -0.71875 -1.953125 -0.71875q-0.859375 0 -1.671875 0.3125q-0.8125 0.296875 -1.390625 0.875l0 0l0 11.40625l1.9375 1.234375l0 0.625l-9.281242 0l0 -0.625l1.90625 -1.234375l0 -9.8125q0 -1.359375 -0.765625 -2.0625q-0.75 -0.71875 -1.953125 -0.71875q-0.6875 0 -1.5 0.265625q-0.8125 0.265625 -1.390625 0.734375l0 11.59375l1.859375 1.234375l0 0.625l-9.859375 0zm40.048805 -21.84375q-1.25 0 -2.046875 -0.78125q-0.78125 -0.796875 -0.78125 -2.0q0 -1.234375 0.78125 -2.03125q0.796875 -0.796875 2.046875 -0.796875q1.234375 0 2.015625 0.796875q0.796875 0.796875 0.796875 2.03125q0 1.203125 -0.796875 2.0q-0.78125 0.78125 -2.015625 0.78125zm-5.21875 21.84375l0 -0.625l2.578125 -1.234375l0 -11.75l-2.46875 -1.8125l0 -0.46875l7.46875 -2.125l0.453125 0l0 16.15625l2.28125 1.234375l0 0.625l-10.3125 0zm21.403778 0.390625q-2.46875 0 -4.359375 -1.046875q-1.890625 -1.046875 -2.9375 -2.9375q-1.046875 -1.890625 -1.046875 -4.40625q0 -2.9375 1.21875 -5.203125q1.21875 -2.265625 3.390625 -3.53125q2.1875 -1.28125 5.09375 -1.28125q1.8125 0 3.28125 0.5q1.46875 0.5 2.203125 1.390625q0.625 0.734375 0.625 1.171875q0 0.453125 -0.5 0.921875l-1.828125 1.546875l-0.265625 0l-1.34375 -1.890625q-0.671875 -0.890625 -1.328125 -1.40625q-0.65625 -0.53125 -1.734375 -0.53125q-1.78125 0 -2.6875 1.765625q-0.90625 1.75 -0.90625 4.6875q0 1.671875 0.578125 3.0625q0.578125 1.390625 1.828125 2.203125q1.265625 0.8125 3.28125 0.8125q1.078125 0 2.3125 -0.265625q1.234375 -0.28125 2.546875 -0.9375l0.125 0l0 0.609375q-0.96875 2.0625 -2.921875 3.421875q-1.953125 1.34375 -4.625 1.34375zm14.740875 -0.046875q-1.90625 0 -3.265625 -1.140625q-1.34375 -1.140625 -1.265625 -3.296875q0 -1.390625 0.53125 -2.375q0.546875 -0.984375 1.90625 -1.71875q1.359375 -0.734375 3.78125 -1.359375l3.640625 -0.890625l0 -2.390625q0 -1.46875 -0.890625 -2.359375q-0.890625 -0.890625 -2.28125 -0.890625q-1.234375 0 -1.78125 0.546875q-0.53125 0.53125 -0.53125 1.609375l0 1.78125l-0.15625 0.15625l-2.5625 0q-0.578125 0 -0.8125 -0.265625q-0.21875 -0.28125 -0.21875 -0.9375q0 -0.84375 0.671875 -1.65625q0.671875 -0.8125 1.796875 -1.515625q1.390625 -0.875 2.609375 -1.265625q1.21875 -0.390625 2.640625 -0.390625q1.90625 0 3.484375 0.5q1.59375 0.5 2.53125 1.609375q0.953125 1.09375 0.953125 2.84375l0 10.203125q0.609375 0.625 1.859375 0.625l1.109375 0l0.125 0.109375l0 0.546875q-0.421875 0.734375 -1.453125 1.359375q-1.03125 0.609375 -2.65625 0.609375q-1.609375 0 -2.640625 -0.671875q-1.03125 -0.6875 -1.5625 -1.953125l-0.234375 0q-0.96875 1.078125 -2.328125 1.828125q-1.34375 0.75 -3.0 0.75zm0.578125 -5.53125q0 1.25 0.671875 1.84375q0.671875 0.59375 1.875 0.59375q1.046875 0 2.203125 -0.453125l0 -5.6875q-1.9375 0.421875 -2.96875 0.9375q-1.015625 0.5 -1.40625 1.15625q-0.375 0.65625 -0.375 1.609375zm14.495117 5.1875l0 -0.625l2.59375 -1.234375l0 -22.71875l-2.484375 -1.828125l0 -0.453125l7.46875 -2.125l0.453125 0l0 27.125l2.28125 1.234375l0 0.625l-10.3125 0z" fill-rule="nonzero"/><defs><radialGradient id="p.2" gradientUnits="userSpaceOnUse" gradientTransform="matrix(11.613511824860213 0.0 0.0 11.613511824860213 0.0 0.0)" spreadMethod="pad" cx="41.74339415034249" cy="11.318045669569022" fx="41.74339415034249" fy="11.318045669569022" r="11.61351203918457"><stop offset="0.0" stop-color="#fff6db"/><stop offset="1.0" stop-color="#fad25c"/></radialGradient></defs><path fill="url(#p.2)" d="m389.41733 131.44226l0 0c0 -52.67144 42.69864 -95.37009 95.37009 -95.37009l0 0c25.293701 0 49.551453 10.04789 67.43683 27.933247c17.885376 17.88536 27.933228 42.143112 27.933228 67.43684l0 0c0 52.671432 -42.69861 95.37007 -95.370056 95.37007l0 0c-52.671448 0 -95.37009 -42.69864 -95.37009 -95.37007z" fill-rule="evenodd"/><path stroke="#000000" stroke-width="1.0" stroke-linejoin="round" stroke-linecap="butt" d="m389.41733 131.44226l0 0c0 -52.67144 42.69864 -95.37009 95.37009 -95.37009l0 0c25.293701 0 49.551453 10.04789 67.43683 27.933247c17.885376 17.88536 27.933228 42.143112 27.933228 67.43684l0 0c0 52.671432 -42.69861 95.37007 -95.370056 95.37007l0 0c-52.671448 0 -95.37009 -42.69864 -95.37009 -95.37007z" fill-rule="evenodd"/><path fill="#000000" fill-opacity="0.0" d="m389.41733 86.009186l190.74014 0l0 90.86615l-190.74014 0z" fill-rule="evenodd"/><path fill="#000000" d="m446.0948 145.56226l0 -0.625l3.28125 -1.578125l0 -21.109375l-3.28125 -1.578125l0 -0.625l13.21875 0q4.0625 0 6.390625 1.6875q2.34375 1.671875 2.34375 4.609375q0 2.125 -1.4375 3.65625q-1.421875 1.53125 -3.734375 2.421875l7.140625 10.96875l2.78125 1.546875l0 0.625l-8.375 0l-7.15625 -11.828125l-2.046875 0l0 9.59375l2.890625 1.609375l0 0.625l-12.015625 0zm10.671875 -23.390625l-1.546875 0l0 9.671875l1.78125 0q2.390625 0 3.78125 -1.34375q1.390625 -1.359375 1.390625 -3.53125q0 -2.28125 -1.375 -3.53125q-1.375 -1.265625 -4.03125 -1.265625zm26.089844 23.78125q-2.75 0 -4.84375 -1.25q-2.078125 -1.265625 -3.234375 -3.34375q-1.15625 -2.09375 -1.15625 -4.609375q0 -2.546875 1.15625 -4.640625q1.15625 -2.09375 3.234375 -3.328125q2.09375 -1.234375 4.84375 -1.234375q2.75 0 4.8125 1.234375q2.0625 1.234375 3.21875 3.328125q1.171875 2.09375 1.171875 4.640625q0 2.515625 -1.171875 4.609375q-1.15625 2.078125 -3.21875 3.34375q-2.0625 1.25 -4.8125 1.25zm0.421875 -1.890625q1.125 0 1.828125 -0.90625q0.71875 -0.921875 1.046875 -2.421875q0.328125 -1.515625 0.328125 -3.21875q0 -2.078125 -0.40625 -3.9375q-0.40625 -1.859375 -1.28125 -3.015625q-0.859375 -1.15625 -2.28125 -1.15625q-1.171875 0 -1.90625 0.90625q-0.734375 0.90625 -1.078125 2.40625q-0.34375 1.484375 -0.34375 3.21875q0 2.125 0.421875 3.96875q0.421875 1.828125 1.328125 3.0q0.921875 1.15625 2.34375 1.15625zm11.2543335 1.5l0 -0.625l2.59375 -1.234375l0 -22.71875l-2.484375 -1.828125l0 -0.453125l7.46875 -2.125l0.453125 0l0 27.125l2.28125 1.234375l0 0.625l-10.3125 0zm21.523804 0.390625q-3.984375 0 -6.28125 -2.296875q-2.296875 -2.3125 -2.296875 -6.09375q0 -2.9375 1.265625 -5.203125q1.28125 -2.265625 3.4375 -3.53125q2.171875 -1.28125 4.84375 -1.28125q3.125 0 4.859375 2.09375q1.75 2.078125 1.796875 5.90625l-0.15625 0.203125l-10.828125 0l0 0.1875q0 1.625 0.609375 2.96875q0.625 1.328125 1.953125 2.109375q1.34375 0.765625 3.46875 0.765625q1.125 0 2.34375 -0.265625q1.21875 -0.28125 2.53125 -0.9375l0.109375 0l0 0.609375q-0.96875 2.0625 -2.96875 3.421875q-1.984375 1.34375 -4.6875 1.34375zm0.078125 -16.671875q-1.34375 0 -2.21875 1.25q-0.875 1.234375 -1.109375 3.46875l6.546875 0q-0.28125 -2.65625 -1.109375 -3.6875q-0.828125 -1.03125 -2.109375 -1.03125z" fill-rule="nonzero"/><defs><radialGradient id="p.3" gradientUnits="userSpaceOnUse" gradientTransform="matrix(11.613511824860213 0.0 0.0 11.613511824860213 0.0 0.0)" spreadMethod="pad" cx="72.11710127216675" cy="11.318045669569022" fx="72.11710127216675" fy="11.318045669569022" r="11.61351203918457"><stop offset="0.0" stop-color="#dcecd5"/><stop offset="1.0" stop-color="#93bc81"/></radialGradient></defs><path fill="url(#p.3)" d="m742.1627 131.44226l0 0c0 -52.67144 42.69867 -95.37009 95.37012 -95.37009l0 0c25.293701 0 49.551453 10.04789 67.43683 27.933247c17.885315 17.88536 27.933228 42.143112 27.933228 67.43684l0 0c0 52.671432 -42.69867 95.37007 -95.370056 95.37007l0 0c-52.671448 0 -95.37012 -42.69864 -95.37012 -95.37007z" fill-rule="evenodd"/><path stroke="#000000" stroke-width="1.0" stroke-linejoin="round" stroke-linecap="butt" d="m742.1627 131.44226l0 0c0 -52.67144 42.69867 -95.37009 95.37012 -95.37009l0 0c25.293701 0 49.551453 10.04789 67.43683 27.933247c17.885315 17.88536 27.933228 42.143112 27.933228 67.43684l0 0c0 52.671432 -42.69867 95.37007 -95.370056 95.37007l0 0c-52.671448 0 -95.37012 -42.69864 -95.37012 -95.37007z" fill-rule="evenodd"/><path fill="#000000" fill-opacity="0.0" d="m756.4947 86.009186l162.07874 0l0 90.86615l-162.07874 0z" fill-rule="evenodd"/><path fill="#000000" d="m785.48193 145.56226l0 -0.625l4.09375 -1.578125l0 -21.1875l-5.515625 0l-3.09375 6.375l-0.625 0l0 -8.5l24.3125 0l0 8.5l-0.609375 0l-3.09375 -6.375l-5.53125 0l0 21.1875l4.09375 1.578125l0 0.625l-14.03125 0zm25.32788 0.34375q-1.90625 0 -3.265625 -1.140625q-1.34375 -1.140625 -1.265625 -3.296875q0 -1.390625 0.53125 -2.375q0.546875 -0.984375 1.90625 -1.71875q1.359375 -0.734375 3.78125 -1.359375l3.640625 -0.890625l0 -2.390625q0 -1.46875 -0.890625 -2.359375q-0.890625 -0.890625 -2.28125 -0.890625q-1.234375 0 -1.78125 0.546875q-0.53125 0.53125 -0.53125 1.609375l0 1.78125l-0.15625 0.15625l-2.5625 0q-0.578125 0 -0.8125 -0.265625q-0.21875 -0.28125 -0.21875 -0.9375q0 -0.84375 0.671875 -1.65625q0.671875 -0.8125 1.796875 -1.515625q1.390625 -0.875 2.609375 -1.265625q1.21875 -0.390625 2.640625 -0.390625q1.90625 0 3.484375 0.5q1.59375 0.5 2.53125 1.609375q0.953125 1.09375 0.953125 2.84375l0 10.203125q0.609375 0.625 1.859375 0.625l1.109375 0l0.125 0.109375l0 0.546875q-0.421875 0.734375 -1.453125 1.359375q-1.03125 0.609375 -2.65625 0.609375q-1.609375 0 -2.640625 -0.671875q-1.03125 -0.6875 -1.5625 -1.953125l-0.234375 0q-0.96875 1.078125 -2.328125 1.828125q-1.34375 0.75 -3.0 0.75zm0.578125 -5.53125q0 1.25 0.671875 1.84375q0.671875 0.59375 1.875 0.59375q1.046875 0 2.203125 -0.453125l0 -5.6875q-1.9375 0.421875 -2.96875 0.9375q-1.015625 0.5 -1.40625 1.15625q-0.375 0.65625 -0.375 1.609375zm14.728638 5.1875l0 -0.625l2.546875 -1.234375l0 -11.515625l-2.4375 -1.8125l0 -0.46875l7.03125 -2.359375l0.46875 0l0.34375 3.484375l0.203125 0q0.921875 -1.46875 1.65625 -2.21875q0.734375 -0.765625 1.390625 -1.015625q0.65625 -0.25 1.4375 -0.25q0.296875 0 0.703125 0.09375q0.40625 0.09375 0.71875 0.21875q1.15625 0.34375 1.15625 1.078125q0 0.34375 -0.140625 0.65625l-0.9375 2.515625l-0.265625 0l-1.015625 -0.34375q-1.0 -0.34375 -2.046875 -0.34375q-1.625 0 -2.8125 1.5l0 10.78125l3.125 1.234375l0 0.625l-11.125 0zm25.085144 -5.875q-1.8125 0 -3.359375 -0.625q-0.859375 0.546875 -0.859375 1.515625q0 1.859375 2.984375 1.859375l4.25 0q3.046875 0 4.46875 1.328125q1.4375 1.328125 1.4375 3.921875q0 1.78125 -1.234375 3.421875q-1.234375 1.640625 -3.5 2.6875q-2.25 1.046875 -5.390625 1.046875q-3.75 0 -5.375 -1.1875q-1.625 -1.171875 -1.625 -2.953125q0 -0.6875 0.171875 -1.25q0.1875 -0.5625 0.53125 -1.140625l2.4375 -1.546875l0 -0.203125q-2.984375 -0.96875 -2.984375 -3.828125q0 -1.765625 1.078125 -2.890625l2.21875 -1.28125l0 -0.234375q-1.25 -0.8125 -1.96875 -2.015625q-0.703125 -1.21875 -0.703125 -2.6875q0 -1.75 0.984375 -3.09375q0.984375 -1.359375 2.640625 -2.140625q1.671875 -0.796875 3.796875 -0.796875q1.125 0 2.203125 0.234375q1.078125 0.21875 1.703125 0.53125l5.953125 -0.390625l0 2.328125l-3.875 -0.3125l-0.15625 0.15625q0.703125 0.609375 1.125 1.546875q0.421875 0.921875 0.421875 1.9375q0 1.734375 -0.96875 3.109375q-0.953125 1.375 -2.640625 2.171875q-1.6875 0.78125 -3.765625 0.78125zm0.265625 -1.65625q1.234375 0 1.875 -1.171875q0.640625 -1.1875 0.640625 -3.125q0 -2.203125 -0.8125 -3.375q-0.8125 -1.1875 -2.09375 -1.1875q-1.3125 0 -1.96875 1.203125q-0.65625 1.1875 -0.65625 3.125q0 2.203125 0.8125 3.375q0.8125 1.15625 2.203125 1.15625zm-5.171875 11.9375q0 1.515625 1.03125 2.5q1.046875 0.984375 3.0625 0.984375q2.46875 0 3.890625 -1.140625q1.4375 -1.140625 1.4375 -2.6875q0 -1.46875 -0.78125 -2.046875q-0.765625 -0.578125 -2.6875 -0.578125l-3.328125 0q-0.578125 0 -1.125 -0.046875q-1.5 0.96875 -1.5 3.015625zm25.773987 -4.015625q-3.984375 0 -6.28125 -2.296875q-2.296875 -2.3125 -2.296875 -6.09375q0 -2.9375 1.265625 -5.203125q1.28125 -2.265625 3.4375 -3.53125q2.171875 -1.28125 4.84375 -1.28125q3.125 0 4.859375 2.09375q1.75 2.078125 1.796875 5.90625l-0.15625 0.203125l-10.828125 0l0 0.1875q0 1.625 0.609375 2.96875q0.625 1.328125 1.953125 2.109375q1.34375 0.765625 3.46875 0.765625q1.125 0 2.34375 -0.265625q1.21875 -0.28125 2.53125 -0.9375l0.109375 0l0 0.609375q-0.96875 2.0625 -2.96875 3.421875q-1.984375 1.34375 -4.6875 1.34375zm0.078125 -16.671875q-1.34375 0 -2.21875 1.25q-0.875 1.234375 -1.109375 3.46875l6.546875 0q-0.28125 -2.65625 -1.109375 -3.6875q-0.828125 -1.03125 -2.109375 -1.03125zm17.595398 16.671875q-2.359375 0 -3.875 -1.0q-1.5 -1.015625 -1.5 -2.828125l0 -12.453125l-2.78125 0l0 -0.53125l3.546875 -1.203125l3.90625 -4.25l0.734375 0l0 4.25l5.375 0l0 1.734375l-5.375 0l0 11.484375q0 1.0 0.84375 1.46875q0.859375 0.46875 2.015625 0.46875q0.734375 0 1.296875 -0.09375q0.5625 -0.109375 1.109375 -0.21875l0.109375 0.078125l0 0.65625q-0.65625 0.921875 -2.125 1.6875q-1.46875 0.75 -3.28125 0.75z" fill-rule="nonzero"/><defs><linearGradient id="p.4" gradientUnits="userSpaceOnUse" gradientTransform="matrix(8.984676368618901 0.0 0.0 8.984676368618901 0.0 0.0)" spreadMethod="pad" x1="29.306824770860487" y1="16.296484053894837" x2="38.29150113947939" y2="16.296484053894837"><stop offset="0.0" stop-color="#f6b26b"/><stop offset="1.0" stop-color="#ffd966"/></linearGradient></defs><path fill="url(#p.4)" d="m263.31235 123.95407l65.74802 0l0 -7.4881897l14.976379 14.976379l-14.976379 14.976379l0 -7.4881897l-65.74802 0z" fill-rule="evenodd"/><path stroke="#bf9000" stroke-width="1.0" stroke-linejoin="round" stroke-linecap="butt" d="m263.31235 123.95407l65.74802 0l0 -7.4881897l14.976379 14.976379l-14.976379 14.976379l0 -7.4881897l-65.74802 0z" fill-rule="evenodd"/><defs><linearGradient id="p.5" gradientUnits="userSpaceOnUse" gradientTransform="matrix(8.984676368618901 0.0 0.0 8.984676368618901 0.0 0.0)" spreadMethod="pad" x1="69.09518771658266" y1="16.296484053894837" x2="78.07986408520156" y2="16.296484053894837"><stop offset="0.0" stop-color="#ffd966"/><stop offset="1.0" stop-color="#b6d7a8"/></linearGradient></defs><path fill="url(#p.5)" d="m620.7979 123.95407l65.74805 0l0 -7.4881897l14.976379 14.976379l-14.976379 14.976379l0 -7.4881897l-65.74805 0z" fill-rule="evenodd"/><path stroke="#38761d" stroke-width="1.0" stroke-linejoin="round" stroke-linecap="butt" d="m620.7979 123.95407l65.74805 0l0 -7.4881897l14.976379 14.976379l-14.976379 14.976379l0 -7.4881897l-65.74805 0z" fill-rule="evenodd"/><path fill="#000000" fill-opacity="0.0" d="m245.94226 152.87534l115.46457 0l0 35.590546l-115.46457 0z" fill-rule="evenodd"/><path fill="#000000" d="m260.6013 178.1506l0 -0.34375l1.8125 -0.875l0 -11.640625l-1.8125 -0.875l0 -0.34375l6.703125 0l0 0.34375l-1.671875 0.875l0 5.03125l5.90625 0l0 -5.03125l-1.703125 -0.875l0 -0.34375l6.71875 0l0 0.34375l-1.796875 0.875l0 11.640625l1.796875 0.875l0 0.34375l-6.71875 0l0 -0.34375l1.703125 -0.875l0 -5.4375l-5.90625 0l0 5.4375l1.671875 0.875l0 0.34375l-6.703125 0zm20.111633 0.1875q-1.046875 0 -1.796875 -0.625q-0.734375 -0.625 -0.703125 -1.828125q0 -0.765625 0.296875 -1.296875q0.3125 -0.546875 1.046875 -0.953125q0.75 -0.40625 2.09375 -0.75l2.0 -0.5l0 -1.3125q0 -0.8125 -0.484375 -1.296875q-0.484375 -0.5 -1.25 -0.5q-0.6875 0 -0.984375 0.296875q-0.296875 0.296875 -0.296875 0.90625l0 0.96875l-0.09375 0.09375l-1.40625 0q-0.3125 0 -0.453125 -0.140625q-0.125 -0.15625 -0.125 -0.515625q0 -0.46875 0.375 -0.921875q0.375 -0.453125 1.0 -0.828125q0.765625 -0.5 1.4375 -0.703125q0.671875 -0.21875 1.453125 -0.21875q1.046875 0 1.921875 0.28125q0.875 0.265625 1.390625 0.875q0.53125 0.609375 0.53125 1.578125l0 5.625q0.34375 0.34375 1.015625 0.34375l0.625 0l0.0625 0.0625l0 0.296875q-0.234375 0.40625 -0.796875 0.75q-0.5625 0.34375 -1.46875 0.34375q-0.890625 0 -1.453125 -0.375q-0.5625 -0.375 -0.859375 -1.078125l-0.140625 0q-0.53125 0.59375 -1.28125 1.015625q-0.734375 0.40625 -1.65625 0.40625zm0.328125 -3.046875q0 0.6875 0.359375 1.015625q0.375 0.328125 1.046875 0.328125q0.578125 0 1.203125 -0.25l0 -3.140625q-1.0625 0.234375 -1.625 0.515625q-0.5625 0.28125 -0.78125 0.640625q-0.203125 0.359375 -0.203125 0.890625zm11.8689575 3.078125q-1.046875 0 -1.828125 -0.203125q-0.765625 -0.203125 -1.515625 -0.5625l0 -2.484375l0.3125 0l0.75 1.109375q0.796875 1.203125 2.203125 1.203125q1.65625 0 1.65625 -1.21875q0 -0.453125 -0.234375 -0.71875q-0.234375 -0.28125 -0.765625 -0.53125q-0.515625 -0.265625 -1.421875 -0.65625q-1.203125 -0.484375 -1.78125 -1.140625q-0.5625 -0.671875 -0.5625 -1.65625q0 -0.90625 0.46875 -1.65625q0.484375 -0.75 1.3125 -1.1875q0.828125 -0.453125 1.875 -0.453125q0.734375 0 1.421875 0.15625q0.6875 0.140625 1.359375 0.484375l0 2.53125l-0.328125 0l-0.65625 -1.0q-0.40625 -0.609375 -0.84375 -0.90625q-0.421875 -0.3125 -1.015625 -0.3125q-0.640625 0 -1.03125 0.328125q-0.390625 0.3125 -0.390625 0.890625q0 0.390625 0.171875 0.65625q0.1875 0.265625 0.65625 0.53125q0.46875 0.25 1.34375 0.578125q0.59375 0.234375 1.171875 0.546875q0.59375 0.3125 0.984375 0.875q0.40625 0.5625 0.40625 1.578125q0 1.0 -0.53125 1.734375q-0.53125 0.71875 -1.375 1.109375q-0.84375 0.375 -1.8125 0.375zm11.136841 -0.21875l0 -0.34375l1.8125 -0.875l0 -11.640625l-1.8125 -0.875l0 -0.34375l7.296875 0q2.234375 0 3.515625 0.9375q1.296875 0.921875 1.296875 2.546875q0 1.171875 -0.796875 2.015625q-0.78125 0.84375 -2.0625 1.328125l3.953125 6.0625l1.53125 0.84375l0 0.34375l-4.625 0l-3.9375 -6.53125l-1.140625 0l0 5.296875l1.609375 0.890625l0 0.34375l-6.640625 0zm5.890625 -12.90625l-0.859375 0l0 5.328125l0.984375 0q1.328125 0 2.09375 -0.734375q0.765625 -0.75 0.765625 -1.953125q0 -1.25 -0.765625 -1.9375q-0.75 -0.703125 -2.21875 -0.703125zm14.3932495 13.125q-1.515625 0 -2.671875 -0.6875q-1.140625 -0.703125 -1.78125 -1.84375q-0.640625 -1.15625 -0.640625 -2.546875q0 -1.40625 0.640625 -2.5625q0.640625 -1.15625 1.78125 -1.828125q1.15625 -0.6875 2.671875 -0.6875q1.515625 0 2.65625 0.6875q1.140625 0.671875 1.78125 1.828125q0.640625 1.15625 0.640625 2.5625q0 1.390625 -0.640625 2.546875q-0.640625 1.140625 -1.78125 1.84375q-1.140625 0.6875 -2.65625 0.6875zm0.234375 -1.046875q0.625 0 1.015625 -0.5q0.390625 -0.5 0.5625 -1.328125q0.1875 -0.84375 0.1875 -1.78125q0 -1.15625 -0.21875 -2.171875q-0.21875 -1.03125 -0.703125 -1.671875q-0.484375 -0.640625 -1.265625 -0.640625q-0.640625 0 -1.046875 0.515625q-0.40625 0.5 -0.609375 1.328125q-0.1875 0.8125 -0.1875 1.765625q0 1.171875 0.234375 2.1875q0.234375 1.015625 0.734375 1.65625q0.515625 0.640625 1.296875 0.640625zm6.2134094 0.828125l0 -0.34375l1.421875 -0.6875l0 -12.53125l-1.359375 -1.0l0 -0.265625l4.109375 -1.171875l0.265625 0l0 14.96875l1.25 0.6875l0 0.34375l-5.6875 0zm11.874878 0.21875q-2.203125 0 -3.46875 -1.265625q-1.265625 -1.28125 -1.265625 -3.375q0 -1.609375 0.703125 -2.859375q0.703125 -1.25 1.890625 -1.953125q1.203125 -0.703125 2.671875 -0.703125q1.734375 0 2.6875 1.15625q0.953125 1.140625 0.984375 3.25l-0.09375 0.109375l-5.96875 0l0 0.109375q0 0.890625 0.34375 1.640625q0.34375 0.734375 1.078125 1.15625q0.734375 0.421875 1.90625 0.421875q0.625 0 1.296875 -0.140625q0.671875 -0.15625 1.390625 -0.515625l0.0625 0l0 0.34375q-0.53125 1.125 -1.640625 1.875q-1.09375 0.75 -2.578125 0.75zm0.046875 -9.203125q-0.75 0 -1.234375 0.6875q-0.484375 0.6875 -0.609375 1.921875l3.609375 0q-0.15625 -1.46875 -0.609375 -2.03125q-0.453125 -0.578125 -1.15625 -0.578125z" fill-rule="nonzero"/><path fill="#000000" fill-opacity="0.0" d="m603.4278 152.87534l115.4646 0l0 35.590546l-115.4646 0z" fill-rule="evenodd"/><path fill="#000000" d="m626.33215 178.1506l0 -0.34375l1.296875 -0.71875l5.5625 -13.125l1.890625 0l5.5 13.078125l1.453125 0.765625l0 0.34375l-6.75 0l0 -0.34375l1.859375 -0.765625l-1.453125 -3.546875l-5.046875 0l-1.453125 3.546875l1.765625 0.765625l0 0.34375l-4.625 0zm4.796875 -5.828125l4.078125 0l-2.03125 -4.96875l-2.046875 4.96875zm11.643921 5.828125l0 -0.34375l1.4375 -0.6875l0 -7.734375l-1.625 0l0 -0.953125l1.625 0l0 -0.671875q0 -0.421875 0.265625 -1.109375q0.28125 -0.703125 0.796875 -1.46875q0.53125 -0.765625 1.234375 -1.453125q0.703125 -0.703125 1.546875 -1.140625q0.859375 -0.4375 1.796875 -0.4375q0.21875 0 0.40625 0.046875q0.203125 0.046875 0.34375 0.078125q0.234375 0.09375 0.3125 0.1875q0.078125 0.09375 0.078125 0.21875q0 0.09375 -0.046875 0.1875q-0.046875 0.09375 -0.109375 0.21875l-0.546875 1.203125l-0.203125 0l-0.34375 -0.15625q-0.203125 -0.109375 -0.453125 -0.171875q-0.25 -0.078125 -0.5 -0.078125q-0.890625 0 -1.234375 0.765625q-0.34375 0.75 -0.34375 2.453125l0 1.328125l4.90625 0l0 -0.671875q0 -0.421875 0.28125 -1.109375q0.28125 -0.703125 0.796875 -1.46875q0.515625 -0.765625 1.21875 -1.453125q0.703125 -0.703125 1.5625 -1.140625q0.859375 -0.4375 1.8125 -0.4375q0.25 0 0.484375 0.0625q0.25 0.0625 0.40625 0.15625q0.3125 0.140625 0.40625 0.265625q0.109375 0.109375 0.109375 0.28125q0 0.203125 -0.109375 0.40625l-0.5625 1.15625l-0.171875 0l-0.40625 -0.171875q-0.375 -0.171875 -0.671875 -0.265625q-0.296875 -0.09375 -0.65625 -0.09375q-0.921875 0 -1.21875 0.71875q-0.296875 0.703125 -0.296875 2.4375l0 1.328125l2.546875 0l0 0.953125l-2.546875 0l0 7.765625l1.671875 0.65625l0 0.34375l-6.078125 0l0 -0.34375l1.421875 -0.6875l0 -7.734375l-4.90625 0l0 7.765625l1.640625 0.65625l0 0.34375l-6.078125 0zm20.457397 0.21875q-2.203125 0 -3.46875 -1.265625q-1.265625 -1.28125 -1.265625 -3.375q0 -1.609375 0.703125 -2.859375q0.703125 -1.25 1.890625 -1.953125q1.203125 -0.703125 2.671875 -0.703125q1.734375 0 2.6875 1.15625q0.953125 1.140625 0.984375 3.25l-0.09375 0.109375l-5.96875 0l0 0.109375q0 0.890625 0.34375 1.640625q0.34375 0.734375 1.078125 1.15625q0.734375 0.421875 1.90625 0.421875q0.625 0 1.296875 -0.140625q0.671875 -0.15625 1.390625 -0.515625l0.0625 0l0 0.34375q-0.53125 1.125 -1.640625 1.875q-1.09375 0.75 -2.578125 0.75zm0.046875 -9.203125q-0.75 0 -1.234375 0.6875q-0.484375 0.6875 -0.609375 1.921875l3.609375 0q-0.15625 -1.46875 -0.609375 -2.03125q-0.453125 -0.578125 -1.15625 -0.578125zm10.662964 9.203125q-1.375 0 -2.421875 -0.578125q-1.03125 -0.578125 -1.609375 -1.625q-0.578125 -1.046875 -0.578125 -2.4375q0 -1.609375 0.671875 -2.859375q0.671875 -1.25 1.875 -1.953125q1.203125 -0.703125 2.796875 -0.703125q1.015625 0 1.8125 0.28125q0.8125 0.265625 1.21875 0.765625q0.34375 0.40625 0.34375 0.640625q0 0.25 -0.28125 0.515625l-1.0 0.84375l-0.140625 0l-0.75 -1.046875q-0.359375 -0.484375 -0.734375 -0.765625q-0.359375 -0.296875 -0.953125 -0.296875q-0.984375 0 -1.484375 0.96875q-0.5 0.96875 -0.5 2.59375q0 0.921875 0.3125 1.6875q0.328125 0.765625 1.015625 1.21875q0.703125 0.4375 1.8125 0.4375q0.59375 0 1.265625 -0.140625q0.6875 -0.15625 1.421875 -0.515625l0.0625 0l0 0.34375q-0.53125 1.125 -1.609375 1.875q-1.078125 0.75 -2.546875 0.75zm9.61969 0q-1.3125 0 -2.140625 -0.546875q-0.828125 -0.5625 -0.828125 -1.5625l0 -6.875l-1.53125 0l0 -0.296875l1.953125 -0.65625l2.15625 -2.359375l0.40625 0l0 2.359375l2.96875 0l0 0.953125l-2.96875 0l0 6.328125q0 0.5625 0.46875 0.828125q0.46875 0.25 1.109375 0.25q0.40625 0 0.71875 -0.046875q0.3125 -0.0625 0.609375 -0.125l0.0625 0.03125l0 0.375q-0.359375 0.5 -1.171875 0.921875q-0.8125 0.421875 -1.8125 0.421875zm7.967102 0q-1.046875 0 -1.828125 -0.203125q-0.765625 -0.203125 -1.515625 -0.5625l0 -2.484375l0.3125 0l0.75 1.109375q0.796875 1.203125 2.203125 1.203125q1.65625 0 1.65625 -1.21875q0 -0.453125 -0.234375 -0.71875q-0.234375 -0.28125 -0.765625 -0.53125q-0.515625 -0.265625 -1.421875 -0.65625q-1.203125 -0.484375 -1.78125 -1.140625q-0.5625 -0.671875 -0.5625 -1.65625q0 -0.90625 0.46875 -1.65625q0.484375 -0.75 1.3125 -1.1875q0.828125 -0.453125 1.875 -0.453125q0.734375 0 1.421875 0.15625q0.6875 0.140625 1.359375 0.484375l0 2.53125l-0.328125 0l-0.65625 -1.0q-0.40625 -0.609375 -0.84375 -0.90625q-0.421875 -0.3125 -1.015625 -0.3125q-0.640625 0 -1.03125 0.328125q-0.390625 0.3125 -0.390625 0.890625q0 0.390625 0.171875 0.65625q0.1875 0.265625 0.65625 0.53125q0.46875 0.25 1.34375 0.578125q0.59375 0.234375 1.171875 0.546875q0.59375 0.3125 0.984375 0.875q0.40625 0.5625 0.40625 1.578125q0 1.0 -0.53125 1.734375q-0.53125 0.71875 -1.375 1.109375q-0.84375 0.375 -1.8125 0.375z" fill-rule="nonzero"/></g></svg>